<svg id="visual" viewBox="0 0 900 600" width="900" height="600" xmlns="http://www.w3.org/2000/svg" xmlns:xlink="http://www.w3.org/1999/xlink" version="1.1"><rect x="0" y="0" width="900" height="600" fill="#711b16"></rect><path d="M650 600L656.7 575C663.3 550 676.7 500 666.8 450C657 400 624 350 594.3 300C564.7 250 538.3 200 524.3 150C510.3 100 508.7 50 507.8 25L507 0L900 0L900 25C900 50 900 100 900 150C900 200 900 250 900 300C900 350 900 400 900 450C900 500 900 550 900 575L900 600Z" fill="#e1dff4" stroke-linecap="round" stroke-linejoin="miter"></path></svg>