<svg width="17" height="17" viewBox="0 0 17 17" fill="none" xmlns="http://www.w3.org/2000/svg">
<path d="M16.8301 17C11.2218 17 5.60834 17 0 17C0 16.8884 0 16.7768 0 16.6653C0.0861263 16.5081 0.238112 16.4878 0.405298 16.4928C0.405298 16.4218 0.405298 16.361 0.405298 16.3001C0.405298 15.7625 0.410364 15.2249 0.405298 14.6874C0.400232 14.4388 0.450894 14.236 0.729538 14.165C0.729538 13.9215 0.729538 13.6882 0.729538 13.455C0.729538 13.3028 0.795401 13.1811 0.937256 13.1253C1.03352 13.0898 1.04365 13.034 1.03858 12.9478C1.03351 12.7652 1.02338 12.5826 1.04365 12.4001C1.05885 12.2885 1.10444 12.1211 1.1855 12.0907C1.38309 12.0095 1.35776 11.8625 1.35776 11.7154C1.35776 11.6292 1.36282 11.5379 1.35776 11.4517C1.33749 11.1981 1.38815 10.9851 1.6668 10.909C1.6668 10.6706 1.6516 10.4475 1.67186 10.2294C1.68199 10.1178 1.73266 9.95555 1.81372 9.92005C2.00117 9.82876 1.99104 9.6969 1.98597 9.54475C1.9809 9.45853 1.99104 9.36724 1.98597 9.28103C1.97077 9.03252 2.0113 8.81444 2.30008 8.74851C2.30008 8.5 2.30008 8.27685 2.30008 8.04863C2.30008 7.89141 2.36594 7.76462 2.51286 7.70376C2.60405 7.66826 2.61419 7.6074 2.61419 7.52625C2.60912 7.3386 2.61419 7.15095 2.61419 6.96331C2.61419 6.80609 2.68005 6.6793 2.82697 6.61844C2.91309 6.58294 2.92829 6.53729 2.92829 6.45615C2.92323 6.26342 2.9131 6.06563 2.93336 5.87798C2.94349 5.77148 2.99922 5.6244 3.07522 5.58383C3.24747 5.50268 3.2424 5.38097 3.23734 5.23896C3.23227 5.16289 3.2424 5.08174 3.23734 5.00567C3.22214 4.74702 3.25253 4.50865 3.55651 4.44272C3.55651 4.3565 3.55651 4.29057 3.55651 4.22464C3.55651 3.21539 3.55651 2.21122 3.55651 1.20197C3.55651 0.897673 3.7389 0.704952 4.03781 0.669451C4.07327 0.664379 4.1138 0.66438 4.15939 0.659308C4.15939 0.588306 4.15939 0.527446 4.15939 0.471659C4.15939 0.405728 4.15433 0.339797 4.15939 0.273866C4.16953 0.106504 4.27085 0 4.41271 0C4.55456 0 4.65082 0.106504 4.65588 0.278938C4.66095 0.405728 4.65588 0.532518 4.65588 0.654236C5.14225 0.725239 5.17771 0.76074 5.29423 1.38962C5.34996 1.38962 5.41076 1.38962 5.47155 1.38962C5.94778 1.38962 6.42401 1.38455 6.90024 1.38962C7.12315 1.39469 7.33594 1.41498 7.43726 1.14618C7.46259 1.07518 7.55885 1.02446 7.62978 0.968675C7.75137 0.872315 7.87296 0.775955 8.00468 0.699881C8.17693 0.593377 8.28839 0.47673 8.26306 0.25358C8.24786 0.106504 8.36439 0.0101433 8.49611 0.00507171C8.62783 1.16193e-07 8.75955 0.0963605 8.73929 0.238365C8.70382 0.491945 8.85074 0.60352 9.02806 0.720167C9.15978 0.806384 9.28644 0.892601 9.40297 0.994033C9.49923 1.08025 9.57522 1.19183 9.67148 1.28311C9.71707 1.32876 9.788 1.38455 9.8488 1.38455C10.4365 1.38962 11.0191 1.38962 11.6068 1.38962C11.6423 1.38962 11.6828 1.37947 11.7132 1.3744C11.8094 0.775955 11.8348 0.745525 12.3313 0.654236C12.3363 0.644093 12.3414 0.63395 12.3414 0.623806C12.3414 0.512231 12.3414 0.400656 12.3465 0.294153C12.3515 0.116647 12.4478 0.00507171 12.5947 0.00507171C12.7416 0.00507171 12.8379 0.116647 12.8429 0.299224C12.848 0.420943 12.8429 0.542661 12.8429 0.659308C13.3344 0.73031 13.4458 0.862172 13.4458 1.34397C13.4458 2.32786 13.4458 3.31683 13.4458 4.30072C13.4458 4.39708 13.461 4.45794 13.5674 4.49851C13.7143 4.55937 13.765 4.6963 13.7701 4.85352C13.7701 5.0361 13.765 5.21868 13.7751 5.40125C13.7751 5.4469 13.8157 5.50776 13.8613 5.53311C14.0133 5.61426 14.0842 5.73598 14.0842 5.90841C14.0791 6.10113 14.0791 6.29385 14.0893 6.49165C14.0893 6.53222 14.1247 6.59815 14.1602 6.61336C14.3375 6.69451 14.3983 6.83144 14.3983 7.01402C14.3983 7.1966 14.3932 7.37918 14.4034 7.56175C14.4084 7.61247 14.449 7.68347 14.4946 7.70883C14.6465 7.79505 14.7175 7.91677 14.7124 8.0892C14.7124 8.31742 14.7124 8.54057 14.7124 8.76372C14.9657 8.87023 15.0214 8.9463 15.0214 9.20495C15.0214 9.38246 15.0164 9.55996 15.0265 9.73747C15.0316 9.78819 15.0721 9.85412 15.1177 9.87947C15.2646 9.96062 15.3356 10.0773 15.3356 10.2396C15.3356 10.4323 15.3305 10.625 15.3406 10.8228C15.3457 10.8735 15.3862 10.9394 15.4318 10.9648C15.5686 11.0409 15.6446 11.1524 15.6446 11.3097C15.6446 11.5075 15.6395 11.7103 15.6497 11.9081C15.6497 11.9538 15.6902 12.0197 15.7307 12.04C15.8928 12.1211 15.9638 12.2479 15.9688 12.4254C15.9688 12.6131 15.9638 12.8007 15.9739 12.9884C15.9739 13.034 16.0094 13.105 16.0499 13.1253C16.212 13.2064 16.2829 13.3332 16.2779 13.5107C16.2728 13.7339 16.2779 13.952 16.2779 14.1802C16.5413 14.2512 16.6021 14.4338 16.597 14.6772C16.592 15.1134 16.597 15.5495 16.597 15.9908C16.597 16.1632 16.597 16.3305 16.597 16.503C16.6376 16.5081 16.6578 16.5131 16.6781 16.5131C16.825 16.503 16.9466 16.5436 16.9922 16.6957C17.0277 16.8326 16.9365 16.9239 16.8301 17ZM5.85152 13.0188C6.51013 13.0188 7.14848 13.0188 7.7919 13.0188C7.85269 13.0188 7.91349 13.0188 7.97428 13.034C8.10094 13.0644 8.17187 13.1557 8.16174 13.2876C8.1516 13.4195 8.07054 13.5006 7.93882 13.5107C7.87296 13.5158 7.8071 13.5158 7.74124 13.5158C7.45753 13.5158 7.16875 13.5158 6.87491 13.5158C6.87491 14.52 6.87491 15.5039 6.87491 16.4878C7.02183 16.4878 7.16368 16.4878 7.31061 16.4878C7.31061 16.4066 7.31061 16.3407 7.31061 16.2748C7.31061 15.6611 7.31061 15.0474 7.31061 14.4338C7.31061 14.1345 7.47779 13.957 7.76656 13.952C8.25799 13.9469 8.74942 13.9469 9.24084 13.952C9.50429 13.957 9.67148 14.1244 9.68668 14.3932C9.69174 14.5403 9.69174 14.6924 9.68668 14.8395C9.68161 15.0119 9.58028 15.1083 9.43336 15.1083C9.28644 15.1083 9.19525 15.0069 9.19018 14.8344C9.18512 14.7076 9.19018 14.5859 9.19018 14.4642C8.71396 14.4642 8.26306 14.4642 7.81723 14.4642C7.81723 15.1489 7.81723 15.8132 7.81723 16.4928C8.27319 16.4928 8.72409 16.4928 9.19018 16.4928C9.19018 16.3508 9.19018 16.219 9.19018 16.0871C9.19018 15.8944 9.28644 15.7777 9.43336 15.7777C9.58535 15.7777 9.68161 15.8944 9.68668 16.0871C9.68668 16.224 9.68668 16.3559 9.68668 16.4928C9.8488 16.4928 9.98559 16.4928 10.1173 16.4928C10.1173 15.4988 10.1173 14.5149 10.1173 13.5209C10.0464 13.5209 9.98559 13.5209 9.92479 13.5209C9.64108 13.5209 9.36244 13.526 9.07873 13.5158C8.9318 13.5107 8.83554 13.4144 8.83048 13.2825C8.82541 13.1507 8.91661 13.0442 9.06353 13.0239C9.11419 13.0188 9.16485 13.0188 9.21045 13.0188C9.79813 13.0188 10.3808 13.0188 10.9684 13.0188C11.0242 13.0188 11.085 13.0137 11.1356 13.0086C11.1356 12.8311 11.1356 12.6739 11.1356 12.5116C9.3675 12.5116 7.60951 12.5116 5.84646 12.5116C5.85152 12.6841 5.85152 12.8413 5.85152 13.0188ZM0.911923 16.4928C2.4014 16.4928 3.86555 16.4928 5.3297 16.4928C5.3297 15.8842 5.3297 15.2807 5.3297 14.6874C3.85035 14.6874 2.38114 14.6874 0.911923 14.6874C0.911923 15.2959 0.911923 15.8893 0.911923 16.4928ZM11.6574 16.4928C13.1419 16.4928 14.606 16.4928 16.0803 16.4928C16.0803 15.8842 16.0803 15.2858 16.0803 14.6823C14.6009 14.6823 13.1317 14.6823 11.6574 14.6823C11.6574 15.2909 11.6574 15.8842 11.6574 16.4928ZM9.49415 11.9994C9.49415 11.4162 9.49415 10.8482 9.49415 10.2801C8.82541 10.2801 8.16173 10.2801 7.50312 10.2801C7.50312 10.8634 7.50312 11.4263 7.50312 11.9943C7.75643 11.9943 7.99455 11.9943 8.24786 11.9943C8.24786 11.9081 8.24786 11.8371 8.24786 11.7661C8.24786 11.543 8.24279 11.3249 8.25292 11.1017C8.25799 10.9547 8.36439 10.8583 8.49611 10.8583C8.62783 10.8583 8.72915 10.9496 8.74435 11.1017C8.74942 11.1727 8.74942 11.2437 8.74942 11.3198C8.74942 11.543 8.74942 11.7712 8.74942 12.0045C9.00274 11.9994 9.24084 11.9994 9.49415 11.9994ZM5.33983 13.597C3.96181 13.597 2.59899 13.597 1.23616 13.597C1.23616 13.7947 1.23616 13.9773 1.23616 14.165C2.60912 14.165 3.97194 14.165 5.33983 14.165C5.33983 13.9723 5.33983 13.7897 5.33983 13.597ZM15.1329 11.4314C13.7599 11.4314 12.3921 11.4314 11.0242 11.4314C11.0242 11.6241 11.0242 11.8067 11.0242 11.9943C12.3971 11.9943 13.7599 11.9943 15.1329 11.9943C15.1329 11.7965 15.1329 11.619 15.1329 11.4314ZM1.85931 11.9994C3.23227 11.9994 4.59002 11.9994 5.96298 11.9994C5.96298 11.8067 5.96298 11.619 5.96298 11.4365C4.59002 11.4365 3.22214 11.4365 1.85931 11.4365C1.85931 11.6292 1.85931 11.8067 1.85931 11.9994ZM11.6524 14.165C13.0304 14.165 14.3932 14.165 15.756 14.165C15.756 13.9672 15.756 13.7846 15.756 13.597C14.3831 13.597 13.0203 13.597 11.6524 13.597C11.6524 13.7897 11.6524 13.9723 11.6524 14.165ZM14.8289 10.341C13.5522 10.341 12.2907 10.341 11.0343 10.341C11.0343 10.5388 11.0343 10.7264 11.0343 10.909C12.3059 10.909 13.5624 10.909 14.8289 10.909C14.8289 10.7214 14.8289 10.5388 14.8289 10.341ZM5.96805 10.3461C4.69135 10.3461 3.42985 10.3461 2.17342 10.3461C2.17342 10.5439 2.17342 10.7315 2.17342 10.9141C3.44505 10.9141 4.70148 10.9141 5.96805 10.9141C5.96805 10.7163 5.96805 10.5388 5.96805 10.3461ZM15.4521 12.5167C14.1804 12.5167 12.924 12.5167 11.6625 12.5167C11.6625 12.7145 11.6625 12.8971 11.6625 13.0746C12.9341 13.0746 14.1906 13.0746 15.4521 13.0746C15.4521 12.8869 15.4521 12.7044 15.4521 12.5167ZM1.54014 13.0746C2.81177 13.0746 4.0682 13.0746 5.3297 13.0746C5.3297 12.8819 5.3297 12.6942 5.3297 12.5167C4.05807 12.5167 2.80164 12.5167 1.54014 12.5167C1.54014 12.7094 1.54014 12.8869 1.54014 13.0746ZM9.25098 7.02416C8.73929 7.02416 8.23773 7.02416 7.7463 7.02416C7.7463 7.6074 7.7463 8.17035 7.7463 8.75358C7.87296 8.75358 7.98948 8.74851 8.10601 8.75358C8.2124 8.75865 8.25293 8.72315 8.24786 8.61158C8.24279 8.40871 8.24786 8.20078 8.24786 7.99791C8.24786 7.95227 8.24786 7.90662 8.25292 7.86605C8.26812 7.72404 8.34918 7.6429 8.49104 7.63276C8.62783 7.62261 8.73422 7.71897 8.74435 7.86605C8.75448 8.11456 8.74435 8.36307 8.75449 8.61158C8.75449 8.65722 8.80515 8.73837 8.84061 8.74344C8.9774 8.75865 9.11419 8.74851 9.25605 8.74851C9.25098 8.16527 9.25098 7.60233 9.25098 7.02416ZM10.7861 8.73836C11.931 8.73836 13.0659 8.73836 14.1956 8.73836C14.1956 8.54057 14.1956 8.35292 14.1956 8.17542C13.0507 8.17542 11.9209 8.17542 10.7861 8.17542C10.7861 8.36814 10.7861 8.55072 10.7861 8.73836ZM6.21122 8.17542C5.06625 8.17542 3.93141 8.17542 2.79657 8.17542C2.79657 8.36814 2.79657 8.55072 2.79657 8.73836C3.93648 8.73836 5.07132 8.73836 6.21122 8.73836C6.21122 8.54057 6.21122 8.36307 6.21122 8.17542ZM10.5175 9.26074C9.16485 9.26074 7.82229 9.26074 6.4848 9.26074C6.4848 9.43317 6.4848 9.59546 6.4848 9.75268C7.83749 9.75268 9.17498 9.75268 10.5175 9.75268C10.5175 9.58025 10.5175 9.4281 10.5175 9.26074ZM7.22954 4.94988C6.05417 4.94988 4.89907 4.94988 3.7237 4.94988C3.7237 5.08174 3.73383 5.20346 3.7237 5.32011C3.7085 5.46211 3.76423 5.49761 3.90101 5.49254C4.95479 5.48747 6.01364 5.48747 7.06742 5.48747C7.12315 5.48747 7.17381 5.48747 7.22954 5.48747C7.22954 5.29982 7.22954 5.13246 7.22954 4.94988ZM9.76267 5.49761C9.84373 5.49761 9.89946 5.49761 9.96026 5.49761C10.6949 5.49761 11.4295 5.49761 12.1641 5.49761C12.4832 5.49761 12.8024 5.50268 13.1267 5.49254C13.1723 5.49254 13.2584 5.45197 13.2584 5.42154C13.2736 5.26432 13.2634 5.1071 13.2634 4.94988C12.0779 4.94988 10.9228 4.94988 9.76267 4.94988C9.76267 5.13246 9.76267 5.30489 9.76267 5.49761ZM2.48753 9.81862C3.65277 9.81862 4.80787 9.81862 5.96298 9.81862C5.96298 9.62589 5.96298 9.44332 5.96298 9.26074C4.79774 9.26074 3.6477 9.26074 2.48753 9.26074C2.48753 9.45346 2.48753 9.63097 2.48753 9.81862ZM14.5098 9.26581C13.3344 9.26581 12.1843 9.26581 11.0343 9.26581C11.0343 9.45853 11.0343 9.64111 11.0343 9.82369C12.1995 9.82369 13.3496 9.82369 14.5098 9.82369C14.5098 9.63097 14.5098 9.44839 14.5098 9.26581ZM9.25098 3.89499C8.74435 3.89499 8.2428 3.89499 7.7463 3.89499C7.7463 4.43258 7.7463 4.95495 7.7463 5.4824C7.91349 5.4824 8.07054 5.4824 8.24786 5.4824C8.24786 5.23389 8.24786 5.0006 8.24786 4.76223C8.24786 4.56444 8.34412 4.45286 8.49104 4.45286C8.64303 4.45286 8.73929 4.56444 8.74435 4.75716C8.74942 4.96002 8.73929 5.16796 8.74942 5.37082C8.74942 5.4114 8.80515 5.4824 8.84061 5.48747C8.9774 5.50269 9.11419 5.49254 9.25098 5.49254C9.25098 4.94988 9.25098 4.42751 9.25098 3.89499ZM10.7861 7.07995C10.7861 7.27774 10.7861 7.46032 10.7861 7.65304C11.8246 7.65304 12.848 7.65304 13.8815 7.65304C13.8815 7.46032 13.8815 7.27267 13.8815 7.07995C12.848 7.07995 11.8297 7.07995 10.7861 7.07995ZM6.20109 7.65811C6.20109 7.45525 6.20109 7.27267 6.20109 7.08502C5.16251 7.08502 4.14419 7.08502 3.11574 7.08502C3.11574 7.28282 3.11574 7.47046 3.11574 7.65811C4.15433 7.65811 5.17771 7.65811 6.20109 7.65811ZM12.9443 3.89499C11.8753 3.89499 10.8215 3.89499 9.7728 3.89499C9.7728 4.08264 9.7728 4.25507 9.7728 4.42751C10.8367 4.42751 11.8905 4.42751 12.9443 4.42751C12.9443 4.25 12.9443 4.07757 12.9443 3.89499ZM7.22954 3.89499C6.16056 3.89499 5.10678 3.89499 4.053 3.89499C4.053 4.08264 4.053 4.25507 4.053 4.42751C5.11692 4.42751 6.1707 4.42751 7.22954 4.42751C7.22954 4.25 7.22954 4.07757 7.22954 3.89499ZM10.2693 6.00984C9.07873 6.00984 7.90336 6.00984 6.72798 6.00984C6.72798 6.18228 6.72798 6.3395 6.72798 6.49672C7.91349 6.49672 9.08886 6.49672 10.2693 6.49672C10.2693 6.32936 10.2693 6.17721 10.2693 6.00984ZM12.9392 2.88067C11.8753 2.88067 10.8215 2.88067 9.76267 2.88067C9.76267 3.0531 9.76267 3.21032 9.76267 3.37261C10.8215 3.37261 11.8753 3.37261 12.9392 3.37261C12.9392 3.21032 12.9392 3.0531 12.9392 2.88067ZM7.22954 2.88067C6.16563 2.88067 5.11185 2.88067 4.053 2.88067C4.053 3.04803 4.053 3.21032 4.053 3.37261C5.11185 3.37261 6.16563 3.37261 7.22954 3.37261C7.22954 3.21032 7.22954 3.0531 7.22954 2.88067ZM5.85152 16.4928C6.03391 16.4928 6.19603 16.4928 6.35815 16.4928C6.35815 15.4988 6.35815 14.52 6.35815 13.531C6.18589 13.531 6.02377 13.531 5.85152 13.531C5.85152 14.52 5.85152 15.5039 5.85152 16.4928ZM11.1356 16.4979C11.1356 15.4988 11.1356 14.5149 11.1356 13.5361C10.9583 13.5361 10.7962 13.5361 10.6391 13.5361C10.6391 14.5301 10.6391 15.514 10.6391 16.4979C10.8114 16.4979 10.9684 16.4979 11.1356 16.4979ZM6.21122 6.00477C5.27903 6.00477 4.35698 6.00477 3.42478 6.00477C3.42478 6.19749 3.42478 6.375 3.42478 6.56265C4.35698 6.56265 5.27903 6.56265 6.21122 6.56265C6.21122 6.375 6.21122 6.19242 6.21122 6.00477ZM10.781 6.56265C11.7182 6.56265 12.6403 6.56265 13.5674 6.56265C13.5674 6.36993 13.5674 6.19242 13.5674 6.00477C12.6352 6.00477 11.7132 6.00477 10.781 6.00477C10.781 6.19749 10.781 6.36993 10.781 6.56265ZM8.24786 2.36336C8.24786 2.25179 8.24786 2.15036 8.24786 2.04385C8.24786 1.81563 8.33399 1.70913 8.50117 1.70913C8.66836 1.70913 8.74435 1.8207 8.74435 2.04893C8.74435 2.11993 8.73422 2.196 8.74942 2.26193C8.75956 2.30251 8.80515 2.35829 8.84061 2.36336C8.9774 2.37351 9.11419 2.36844 9.25605 2.36844C9.25605 2.10471 9.26618 1.86128 9.25098 1.61784C9.24591 1.53669 9.18005 1.44541 9.11419 1.38962C8.947 1.24761 8.76462 1.12082 8.57716 0.999105C8.53663 0.973747 8.45051 0.978818 8.40998 1.00418C8.22759 1.12082 8.05534 1.24761 7.88816 1.38455C7.8223 1.43526 7.75137 1.52148 7.7463 1.59248C7.7311 1.84606 7.74124 2.09964 7.74124 2.35829C7.90842 2.36336 8.06548 2.36336 8.24786 2.36336ZM5.27397 2.35829C5.93258 2.35829 6.58106 2.35829 7.22448 2.35829C7.22448 2.19093 7.22448 2.03878 7.22448 1.88663C6.57093 1.88663 5.92245 1.88663 5.27397 1.88663C5.27397 2.04893 5.27397 2.20107 5.27397 2.35829ZM9.76267 2.36336C10.4213 2.36336 11.0647 2.36336 11.7132 2.36336C11.7132 2.196 11.7132 2.04385 11.7132 1.89171C11.0546 1.89171 10.4112 1.89171 9.76267 1.89171C9.76267 2.04893 9.76267 2.196 9.76267 2.36336ZM6.47467 12.0045C6.61146 12.0045 6.73305 11.9994 6.85464 12.0045C6.9661 12.0095 6.9965 11.969 6.9965 11.8625C6.99143 11.3705 6.99649 10.8786 6.99143 10.3866C6.99143 10.3511 6.9813 10.3106 6.97623 10.2751C6.80398 10.2751 6.64186 10.2751 6.47467 10.2751C6.47467 10.8532 6.47467 11.4162 6.47467 12.0045ZM10.0008 10.27C10.0008 10.8279 10.0008 11.3705 10.0059 11.9132C10.0059 11.9436 10.0565 11.9994 10.0869 12.0045C10.2288 12.0146 10.3706 12.0095 10.5125 12.0095C10.5125 11.4162 10.5125 10.8481 10.5125 10.2751C10.3453 10.27 10.1882 10.27 10.0008 10.27ZM9.76774 7.01402C9.76774 7.59218 9.76774 8.16527 9.76774 8.73329C9.93999 8.73329 10.1021 8.73329 10.2642 8.73329C10.2642 8.15006 10.2642 7.58204 10.2642 7.01402C10.092 7.01402 9.93492 7.01402 9.76774 7.01402ZM6.73305 7.01402C6.73305 7.59725 6.73305 8.17035 6.73305 8.74344C6.9053 8.74344 7.06236 8.74344 7.22448 8.74344C7.22448 8.1602 7.22448 7.59218 7.22448 7.01402C7.05729 7.01402 6.9053 7.01402 6.73305 7.01402ZM12.235 2.36336C12.4782 2.36336 12.7062 2.36336 12.9392 2.36336C12.9392 1.96271 12.9392 1.5722 12.9392 1.17154C12.7011 1.17154 12.4731 1.17154 12.235 1.17154C12.235 1.56712 12.235 1.95257 12.235 2.36336ZM4.053 1.16647C4.053 1.5722 4.053 1.96271 4.053 2.35829C4.29112 2.35829 4.5191 2.35829 4.75214 2.35829C4.75214 1.95764 4.75214 1.56712 4.75214 1.16647C4.5191 1.16647 4.29618 1.16647 4.053 1.16647ZM7.74124 3.37261C8.25293 3.37261 8.75448 3.37261 9.25098 3.37261C9.25098 3.20018 9.25098 3.04296 9.25098 2.88574C8.74435 2.88574 8.24279 2.88574 7.74124 2.88574C7.74124 3.0531 7.74124 3.20525 7.74124 3.37261Z" fill="black"/>
</svg>
