<svg width="18" height="21" viewBox="0 0 18 21" fill="none" xmlns="http://www.w3.org/2000/svg">
<path d="M16.7512 19.7551C17.0471 19.7551 17.3154 19.7551 17.5836 19.7551C17.6622 19.7551 17.764 19.7412 17.8149 19.7829C17.8981 19.8569 18.0045 19.9725 17.9999 20.0696C17.9952 20.1621 17.8796 20.2685 17.7871 20.3332C17.7316 20.3702 17.6345 20.3517 17.5559 20.3517C11.8581 20.3517 6.16035 20.3517 0.457967 20.3517C0.134231 20.3517 -0.00451309 20.2592 0.000111716 20.0511C0.00473652 19.843 0.138856 19.7551 0.467217 19.7551C0.703082 19.7551 0.943572 19.7551 1.17944 19.7505C1.19794 19.7505 1.21644 19.7412 1.24881 19.732C1.24881 16.1801 1.24881 12.6283 1.24881 9.05331C0.573588 9.06719 0.346972 8.6417 0.263726 8.06823C0.235977 7.87398 0.175854 7.67974 0.134231 7.49013C0.00473653 6.88428 0.356222 6.43567 0.975946 6.43105C1.43843 6.42642 1.90091 6.43105 2.38651 6.43105C2.39114 6.04719 2.35876 5.66333 2.63163 5.34884C2.90911 5.03436 3.26985 4.97886 3.69071 4.99736C3.69071 4.91411 3.69071 4.84474 3.69071 4.77537C3.69071 4.28514 3.68608 3.79491 3.69071 3.3093C3.69533 2.70808 4.11156 2.29185 4.71741 2.28722C5.04115 2.2826 5.36489 2.29185 5.68862 2.2826C5.75799 2.27797 5.85049 2.23172 5.89211 2.17623C7.34893 0.136687 10.1793 0.132062 11.6315 2.16698C11.6777 2.23172 11.7887 2.2826 11.8674 2.28722C12.3437 2.29647 12.8201 2.29185 13.2964 2.29185C13.9115 2.29647 14.3278 2.70808 14.3324 3.3278C14.337 3.86428 14.337 4.40076 14.337 4.93261C14.337 4.94648 14.3416 4.95573 14.3555 5.00198C14.7255 4.98348 15.0909 5.02973 15.3683 5.33497C15.6505 5.64483 15.632 6.02406 15.6273 6.4218C15.7106 6.42642 15.7799 6.43105 15.8493 6.43105C16.2332 6.43105 16.617 6.42642 17.0009 6.43105C17.6345 6.4403 17.9952 6.92128 17.8241 7.52712C17.7409 7.82774 17.6484 8.12372 17.5605 8.41971C17.4588 8.76195 17.2368 8.97006 16.8853 9.04406C16.8344 9.05331 16.7928 9.13656 16.7604 9.19205C16.7419 9.22443 16.7558 9.27068 16.7558 9.30767C16.7558 12.6977 16.7558 16.0923 16.7558 19.4822C16.7512 19.5655 16.7512 19.6487 16.7512 19.7551ZM16.1453 13.6226C16.1453 12.0964 16.1453 10.5841 16.1453 9.06256C11.3818 9.06256 6.62746 9.06256 1.86853 9.06256C1.86853 10.5887 1.86853 12.1011 1.86853 13.618C3.06636 13.618 4.25493 13.618 5.45276 13.618C5.45276 12.9751 5.44813 12.3508 5.45276 11.7218C5.45738 11.0605 5.84124 10.672 6.49796 10.672C8.17214 10.672 9.8417 10.672 11.5159 10.672C12.1633 10.672 12.5472 11.0559 12.5518 11.7079C12.5565 12.2722 12.5518 12.8318 12.5518 13.396C12.5518 13.4654 12.5518 13.5394 12.5518 13.618C13.7589 13.6226 14.9382 13.6226 16.1453 13.6226ZM8.98148 7.02765C7.37668 7.02765 5.76724 7.02765 4.16244 7.02765C3.11261 7.02765 2.06277 7.02765 1.00832 7.02765C0.735456 7.02765 0.661459 7.12014 0.716956 7.38376C0.767829 7.62425 0.823327 7.86011 0.8742 8.1006C0.948197 8.43359 0.962071 8.44746 1.30893 8.44746C6.39159 8.44746 11.4743 8.44746 16.5569 8.44746C16.617 8.44746 16.6864 8.46596 16.7327 8.44284C16.8205 8.40121 16.9361 8.34572 16.9639 8.27172C17.0749 7.96186 17.1628 7.64275 17.2506 7.32363C17.2969 7.14789 17.2136 7.04615 17.0333 7.03227C16.9685 7.02765 16.8991 7.03227 16.8344 7.03227C14.2168 7.02765 11.5991 7.02765 8.98148 7.02765ZM10.4845 19.7459C10.4892 19.6719 10.4938 19.621 10.4938 19.5701C10.4938 17.9283 10.4938 16.2911 10.4938 14.6493C10.4938 14.5383 10.4845 14.4227 10.4707 14.3117C10.3366 13.3775 9.28672 12.7994 8.43576 13.2064C7.79753 13.5116 7.5108 14.0435 7.5108 14.7418C7.5108 16.342 7.5108 17.9422 7.5108 19.5424C7.5108 19.6071 7.5108 19.6719 7.5108 19.7459C8.51438 19.7459 9.49021 19.7459 10.4845 19.7459ZM13.7173 4.98348C13.7219 4.90949 13.7265 4.84474 13.7265 4.78462C13.7265 4.33601 13.7265 3.8874 13.7265 3.4388C13.7265 3.00407 13.6109 2.88382 13.1762 2.88382C10.392 2.88382 7.61254 2.88382 4.82841 2.88382C4.76366 2.88382 4.69429 2.8792 4.62954 2.88845C4.44917 2.90694 4.29193 3.04569 4.28731 3.23531C4.27806 3.81341 4.28268 4.39151 4.28268 4.98348C7.4368 4.98348 10.5724 4.98348 13.7173 4.98348ZM15.003 6.41717C15.077 5.7512 14.9567 5.58933 14.3185 5.58933C10.7435 5.60321 7.16856 5.59396 3.59359 5.59396C3.50571 5.59396 3.42247 5.59396 3.3346 5.60321C3.1496 5.62633 3.02473 5.7327 3.00161 5.91769C2.98311 6.07956 2.99699 6.24143 2.99699 6.41717C7.00669 6.41717 10.9979 6.41717 15.003 6.41717ZM8.02415 11.2732C7.52467 11.2732 7.05294 11.2732 6.58583 11.2732C6.14185 11.2732 6.04936 11.3657 6.04936 11.8051C6.04936 14.3718 6.04936 16.934 6.04936 19.5007C6.04936 19.5794 6.04936 19.6534 6.04936 19.7366C6.34997 19.7366 6.62283 19.7366 6.90957 19.7366C6.90957 19.6441 6.90957 19.5655 6.90957 19.4869C6.90957 17.9191 6.9142 16.3513 6.90957 14.7881C6.90495 13.9464 7.22406 13.2758 7.92703 12.7948C7.96865 12.767 8.0149 12.7069 8.01952 12.6607C8.02415 12.2121 8.02415 11.7542 8.02415 11.2732ZM11.9552 19.7459C11.9552 19.6534 11.9552 19.5886 11.9552 19.5239C11.9552 16.9386 11.9552 14.3533 11.9552 11.7727C11.9552 11.7264 11.9552 11.6802 11.9506 11.634C11.9321 11.4073 11.8119 11.2871 11.5806 11.2778C11.4003 11.2732 11.2245 11.2778 11.0441 11.2778C10.6973 11.2778 10.3458 11.2778 9.97582 11.2778C9.97582 11.7496 9.97119 12.1982 9.98044 12.6468C9.98044 12.693 10.0313 12.7532 10.0729 12.7809C10.7805 13.2388 11.0904 13.8909 11.0858 14.7233C11.0811 16.3235 11.0858 17.9237 11.0858 19.5192C11.0858 19.5932 11.0858 19.6719 11.0858 19.7505C11.3956 19.7459 11.6639 19.7459 11.9552 19.7459ZM5.43888 15.6437C4.24106 15.6437 3.05711 15.6437 1.87316 15.6437C1.87316 16.0321 1.87316 16.4021 1.87316 16.7767C3.07098 16.7767 4.25031 16.7767 5.43888 16.7767C5.43888 16.3929 5.43888 16.0229 5.43888 15.6437ZM12.5703 16.7767C13.7682 16.7767 14.9521 16.7767 16.1361 16.7767C16.1361 16.3883 16.1361 16.0183 16.1361 15.639C14.9429 15.639 13.7635 15.639 12.5703 15.639C12.5703 16.0229 12.5703 16.3975 12.5703 16.7767ZM1.86391 19.7366C3.07098 19.7366 4.25493 19.7366 5.43426 19.7366C5.43426 19.4129 5.43426 19.1076 5.43426 18.8024C4.23181 18.8024 3.04786 18.8024 1.86391 18.8024C1.86391 19.1215 1.86391 19.4267 1.86391 19.7366ZM16.1407 18.807C14.9382 18.807 13.7543 18.807 12.575 18.807C12.575 19.1308 12.575 19.436 12.575 19.7459C13.7728 19.7459 14.9521 19.7459 16.1407 19.7459C16.1407 19.4267 16.1407 19.1215 16.1407 18.807ZM6.57196 2.2641C8.03802 2.2641 9.48559 2.2641 10.9424 2.2641C9.92032 0.913654 7.61254 0.909029 6.57196 2.2641ZM1.86391 15.0147C3.07098 15.0147 4.25493 15.0147 5.43426 15.0147C5.43426 14.7464 5.43426 14.4921 5.43426 14.2423C4.23181 14.2423 3.04786 14.2423 1.86391 14.2423C1.86391 14.5106 1.86391 14.7557 1.86391 15.0147ZM16.1453 14.2423C14.9382 14.2423 13.7543 14.2423 12.575 14.2423C12.575 14.5106 12.575 14.7649 12.575 15.0147C13.7774 15.0147 14.9567 15.0147 16.1453 15.0147C16.1453 14.7511 16.1453 14.5013 16.1453 14.2423ZM1.86391 18.1781C3.07098 18.1781 4.25493 18.1781 5.43426 18.1781C5.43426 17.9098 5.43426 17.6554 5.43426 17.4057C4.23181 17.4057 3.04786 17.4057 1.86391 17.4057C1.86391 17.6739 1.86391 17.9191 1.86391 18.1781ZM12.5657 18.1827C13.7635 18.1827 14.9475 18.1827 16.1407 18.1827C16.1407 17.9191 16.1407 17.6647 16.1407 17.4011C14.9475 17.4011 13.7635 17.4011 12.5657 17.4011C12.5657 17.6601 12.5657 17.9098 12.5657 18.1827ZM9.38384 11.2825C9.1156 11.2825 8.87974 11.2825 8.63462 11.2825C8.63462 11.6894 8.63462 12.0872 8.63462 12.4895C8.88899 12.4895 9.12485 12.4895 9.38384 12.4895C9.38384 12.1519 9.38384 11.8236 9.38384 11.4952C9.38384 11.4351 9.38384 11.3703 9.38384 11.2825Z" fill="black"/>
<path d="M14.3355 12.0086C13.7158 12.0086 13.2117 11.5091 13.2071 10.8894C13.2024 10.2697 13.7204 9.74705 14.3401 9.75168C14.9552 9.7563 15.464 10.265 15.464 10.8755C15.4732 11.5045 14.9645 12.0132 14.3355 12.0086ZM14.872 10.8801C14.8674 10.5934 14.6223 10.3483 14.3355 10.3529C14.0488 10.3575 13.8037 10.6026 13.8083 10.8894C13.8129 11.1807 14.0534 11.4166 14.3448 11.412C14.6361 11.412 14.872 11.1715 14.872 10.8801Z" fill="black"/>
<path d="M3.55866 12.0086C2.93893 12.004 2.43945 11.5045 2.43945 10.8848C2.43945 10.2604 2.95281 9.74705 3.57253 9.75168C4.19225 9.7563 4.68711 10.2604 4.69173 10.8801C4.69173 11.5137 4.19225 12.0132 3.55866 12.0086ZM4.09513 10.8801C4.09513 10.5841 3.85927 10.3483 3.56791 10.3483C3.27654 10.3483 3.04068 10.5888 3.0453 10.8848C3.0453 11.1807 3.28117 11.412 3.57253 11.412C3.86389 11.412 4.09513 11.1807 4.09513 10.8801Z" fill="black"/>
<path d="M9.00626 3.63769C9.66761 3.63769 10.329 3.63769 10.9903 3.63769C11.0782 3.63769 11.1984 3.63769 11.2493 3.69319C11.3233 3.76719 11.3927 3.90131 11.3742 3.9938C11.3557 4.08167 11.2354 4.16029 11.1429 4.22504C11.1013 4.25279 11.0273 4.23429 10.9672 4.23429C9.65836 4.23429 8.34954 4.23429 7.04072 4.23429C6.99909 4.23429 6.96209 4.23429 6.92047 4.23429C6.73085 4.22504 6.61523 4.10942 6.61523 3.9383C6.61523 3.76719 6.73085 3.64694 6.92047 3.64232C7.18409 3.63307 7.4477 3.63769 7.71131 3.63769C8.14604 3.63769 8.57615 3.63769 9.00626 3.63769Z" fill="black"/>
</svg>
