<svg width="26" height="24" viewBox="0 0 26 24" fill="none" xmlns="http://www.w3.org/2000/svg">
<g clip-path="url(#clip0_865_4790)">
<path d="M3.00697 15.8437H1.78822C1.76105 15.8414 1.7337 15.8448 1.70801 15.854C1.68233 15.8631 1.65892 15.8778 1.63938 15.8968C1.61984 15.9158 1.60461 15.9388 1.59478 15.9643C1.58495 15.9897 1.58072 16.0169 1.58238 16.0442V17.6692C1.58081 17.6966 1.58506 17.7241 1.59485 17.7498C1.60464 17.7754 1.61975 17.7988 1.63918 17.8182C1.65862 17.8376 1.68197 17.8527 1.70765 17.8625C1.73334 17.8723 1.76078 17.8766 1.78822 17.875H3.00697C3.03419 17.8767 3.06144 17.8724 3.08688 17.8626C3.11231 17.8528 3.13533 17.8376 3.15435 17.818C3.17338 17.7985 3.18798 17.7751 3.19713 17.7494C3.20629 17.7237 3.20977 17.6963 3.20738 17.6692V16.0442C3.20896 16.0174 3.20486 15.9907 3.19535 15.9656C3.18584 15.9406 3.17114 15.9179 3.15221 15.899C3.13327 15.88 3.11052 15.8653 3.08549 15.8558C3.06046 15.8463 3.0337 15.8422 3.00697 15.8437ZM2.80113 16.25V16.6562H1.98863V16.25H2.80113ZM1.98863 17.4687V17.0625H2.80113V17.4687H1.98863Z" fill="black"/>
<path d="M25.7527 22.7468H25.1407V19.0911H25.3465C25.3947 19.0832 25.4385 19.0584 25.4701 19.0212C25.5017 18.984 25.519 18.9368 25.519 18.888C25.519 18.8392 25.5017 18.7919 25.4701 18.7547C25.4385 18.7175 25.3947 18.6928 25.3465 18.6849H25.1407V15.4353H25.3465C25.3947 15.4274 25.4385 15.4027 25.4701 15.3655C25.5017 15.3283 25.519 15.2811 25.519 15.2322C25.519 15.1834 25.5017 15.1362 25.4701 15.099C25.4385 15.0618 25.3947 15.037 25.3465 15.0291H25.1407V13.8106H25.3465C25.3947 13.8027 25.4385 13.7779 25.4701 13.7407C25.5017 13.7035 25.519 13.6563 25.519 13.6075C25.519 13.5587 25.5017 13.5114 25.4701 13.4742C25.4385 13.437 25.3947 13.4123 25.3465 13.4044H25.1407V11.98C25.1328 11.9318 25.1081 11.888 25.0709 11.8564C25.0337 11.8248 24.9864 11.8075 24.9376 11.8075C24.8888 11.8075 24.8416 11.8248 24.8044 11.8564C24.7672 11.888 24.7424 11.9318 24.7345 11.98V12.1858H24.3283V10.9672H24.5341C24.5823 10.9593 24.6261 10.9346 24.6577 10.8974C24.6893 10.8602 24.7067 10.8129 24.7067 10.7641C24.7067 10.7153 24.6893 10.6681 24.6577 10.6309C24.6261 10.5937 24.5823 10.5689 24.5341 10.561H24.3283C24.3296 10.3824 24.2703 10.2086 24.1601 10.068C24.05 9.92733 23.8955 9.82815 23.7218 9.78656V9.14206C23.7266 9.11261 23.7249 9.08246 23.717 9.0537C23.709 9.02495 23.6948 8.99827 23.6755 8.97553C23.6562 8.95278 23.6322 8.93454 23.6051 8.92201C23.578 8.90948 23.5485 8.90297 23.5187 8.90297C23.4888 8.90297 23.4593 8.90948 23.4323 8.92201C23.4052 8.93454 23.3811 8.95278 23.3618 8.97553C23.3425 8.99827 23.3283 9.02495 23.3204 9.0537C23.3124 9.08246 23.3107 9.11261 23.3156 9.14206V9.78656C23.1408 9.8271 22.9851 9.92584 22.8739 10.0666C22.7627 10.2073 22.7026 10.3817 22.7036 10.561H22.5032C22.4737 10.5562 22.4436 10.5578 22.4149 10.5658C22.3861 10.5738 22.3594 10.588 22.3367 10.6073C22.3139 10.6266 22.2957 10.6506 22.2831 10.6777C22.2706 10.7048 22.2641 10.7343 22.2641 10.7641C22.2641 10.794 22.2706 10.8234 22.2831 10.8505C22.2957 10.8776 22.3139 10.9017 22.3367 10.921C22.3594 10.9403 22.3861 10.9544 22.4149 10.9624C22.4436 10.9704 22.4737 10.972 22.5032 10.9672H22.7036V12.1858H22.2974V11.98C22.2895 11.9318 22.2647 11.888 22.2275 11.8564C22.1903 11.8248 22.1431 11.8075 22.0943 11.8075C22.0455 11.8075 21.9982 11.8248 21.961 11.8564C21.9238 11.888 21.8991 11.9318 21.8912 11.98V13.4044H21.6908C21.6613 13.3996 21.6312 13.4012 21.6025 13.4092C21.5737 13.4172 21.547 13.4313 21.5243 13.4506C21.5015 13.4699 21.4833 13.494 21.4707 13.5211C21.4582 13.5481 21.4517 13.5776 21.4517 13.6075C21.4517 13.6373 21.4582 13.6668 21.4707 13.6939C21.4833 13.721 21.5015 13.745 21.5243 13.7643C21.547 13.7836 21.5737 13.7978 21.6025 13.8058C21.6312 13.8138 21.6613 13.8154 21.6908 13.8106H21.8912V14.2168H18.6416V13.8106H18.8474C18.8956 13.8027 18.9394 13.7779 18.971 13.7407C19.0026 13.7035 19.02 13.6563 19.02 13.6075C19.02 13.5587 19.0026 13.5114 18.971 13.4742C18.9394 13.437 18.8956 13.4123 18.8474 13.4044H18.6416V11.3734H18.8474C18.8956 11.3655 18.9394 11.3408 18.971 11.3036C19.0026 11.2664 19.02 11.2191 19.02 11.1703C19.02 11.1215 19.0026 11.0743 18.971 11.0371C18.9394 10.9999 18.8956 10.9751 18.8474 10.9672H18.6416C18.6004 10.7673 18.5015 10.5838 18.3571 10.4394C18.2127 10.295 18.0292 10.1961 17.8292 10.1548V9.54283C17.8214 9.49466 17.7966 9.45087 17.7594 9.41927C17.7222 9.38767 17.675 9.37031 17.6261 9.37031C17.5773 9.37031 17.5301 9.38767 17.4929 9.41927C17.4557 9.45087 17.4309 9.49466 17.4231 9.54283V10.1548H17.2227C16.9917 10.1517 16.7687 10.0693 16.5912 9.92142C16.4137 9.77352 16.2925 9.56912 16.2478 9.34245H16.7894C16.8161 9.34402 16.8429 9.33993 16.8679 9.33042C16.8929 9.3209 16.9156 9.30618 16.9346 9.28724C16.9535 9.26831 16.9682 9.2456 16.9778 9.22057C16.9873 9.19554 16.9914 9.16879 16.9898 9.14206V8.32968C16.9922 8.30252 16.9887 8.27517 16.9795 8.24948C16.9704 8.2238 16.9558 8.20036 16.9368 8.18083C16.9177 8.16129 16.8947 8.1461 16.8693 8.13627C16.8439 8.12644 16.8166 8.12221 16.7894 8.12387H16.1774V7.31148H16.3832C16.4314 7.30359 16.4752 7.27884 16.5068 7.24164C16.5384 7.20443 16.5557 7.1572 16.5557 7.10839C16.5557 7.05957 16.5384 7.01234 16.5068 6.97514C16.4752 6.93794 16.4314 6.91318 16.3832 6.90529H16.1774C16.1089 6.29541 15.869 5.71741 15.4856 5.23818C15.1022 4.75894 14.591 4.39807 14.011 4.19734V2.81629H14.2114C14.2596 2.8084 14.3034 2.78365 14.335 2.74644C14.3666 2.70924 14.3839 2.66201 14.3839 2.61319C14.3839 2.56438 14.3666 2.51715 14.335 2.47995C14.3034 2.44274 14.2596 2.41799 14.2114 2.4101H14.011C13.9654 2.21213 13.8651 2.03097 13.7214 1.88732C13.5778 1.74367 13.3966 1.64332 13.1986 1.59771V0.178748C13.1945 0.128955 13.1714 0.0826571 13.1341 0.0493997C13.0968 0.0161423 13.0482 -0.00154573 12.9983 1.39426e-05C12.9708 -0.00155788 12.9434 0.00268945 12.9177 0.0124761C12.892 0.0222627 12.8687 0.0373708 12.8492 0.0568042C12.8298 0.0762377 12.8147 0.0995487 12.8049 0.12523C12.7951 0.150912 12.7909 0.178383 12.7925 0.205821V1.62479C12.5928 1.6667 12.4097 1.76583 12.2654 1.91009C12.1211 2.05435 12.022 2.23751 11.9801 2.43717H11.7797C11.7315 2.44506 11.6877 2.46982 11.6561 2.50702C11.6245 2.54422 11.6072 2.59145 11.6072 2.64027C11.6072 2.68908 11.6245 2.73631 11.6561 2.77352C11.6877 2.81072 11.7315 2.83547 11.7797 2.84336H11.9801V4.22441C11.4021 4.42849 10.8929 4.79032 10.51 5.26892C10.1272 5.74751 9.88594 6.32374 9.81371 6.93236H9.56998C9.52181 6.94026 9.47802 6.96501 9.44642 7.00221C9.41482 7.03941 9.39746 7.08665 9.39746 7.13546C9.39746 7.18428 9.41482 7.23151 9.44642 7.26871C9.47802 7.30591 9.52181 7.33066 9.56998 7.33856H9.74872V8.12387H9.14214C9.1147 8.1223 9.08723 8.12654 9.06155 8.13633C9.03587 8.14612 9.01256 8.16123 8.99312 8.18066C8.97369 8.20009 8.95858 8.2234 8.9488 8.24909C8.93901 8.27477 8.93476 8.30224 8.93633 8.32968V9.14206C8.93467 9.16928 8.9389 9.19653 8.94873 9.22196C8.95856 9.24739 8.97375 9.2704 8.99329 9.28943C9.01282 9.30845 9.03626 9.32305 9.06195 9.3322C9.08763 9.34135 9.11498 9.34484 9.14214 9.34245H9.68373C9.63904 9.56912 9.5178 9.77352 9.34031 9.92142C9.16283 10.0693 8.93989 10.1517 8.70887 10.1548H8.50849V9.54283C8.5006 9.49466 8.47581 9.45087 8.43861 9.41927C8.4014 9.38767 8.35421 9.37031 8.30539 9.37031C8.25658 9.37031 8.20934 9.38767 8.17214 9.41927C8.13494 9.45087 8.11019 9.49466 8.10229 9.54283V10.1548C7.90234 10.1961 7.71883 10.295 7.57446 10.4394C7.43009 10.5838 7.33118 10.7673 7.28991 10.9672H7.0841C7.03593 10.9751 6.99211 10.9999 6.9605 11.0371C6.9289 11.0743 6.91155 11.1215 6.91155 11.1703C6.91155 11.2191 6.9289 11.2664 6.9605 11.3036C6.99211 11.3408 7.03593 11.3655 7.0841 11.3734H7.28991V13.4044H7.0841C7.03593 13.4123 6.99211 13.437 6.9605 13.4742C6.9289 13.5114 6.91155 13.5587 6.91155 13.6075C6.91155 13.6563 6.9289 13.7035 6.9605 13.7407C6.99211 13.7779 7.03593 13.8027 7.0841 13.8106H7.28991V14.2168H4.04036V13.8106H4.24617C4.29434 13.8027 4.33813 13.7779 4.36973 13.7407C4.40134 13.7035 4.41869 13.6563 4.41869 13.6075C4.41869 13.5587 4.40134 13.5114 4.36973 13.4742C4.33813 13.437 4.29434 13.4123 4.24617 13.4044H4.04036V11.98C4.03247 11.9318 4.00769 11.888 3.97048 11.8564C3.93328 11.8248 3.88608 11.8075 3.83727 11.8075C3.78845 11.8075 3.74122 11.8248 3.70402 11.8564C3.66682 11.888 3.64206 11.9318 3.63417 11.98V12.1858H3.24963V10.9672H3.45544C3.50361 10.9593 3.5474 10.9346 3.579 10.8974C3.6106 10.8602 3.62796 10.8129 3.62796 10.7641C3.62796 10.7153 3.6106 10.6681 3.579 10.6309C3.5474 10.5937 3.50361 10.5689 3.45544 10.561H3.24963C3.25087 10.3824 3.19159 10.2086 3.08144 10.068C2.97129 9.92733 2.81677 9.82815 2.64305 9.78656V9.14206C2.64462 9.11462 2.64037 9.08715 2.63059 9.06147C2.6208 9.03579 2.60569 9.01248 2.58626 8.99305C2.56683 8.97361 2.54352 8.9585 2.51783 8.94872C2.49215 8.93893 2.46468 8.93468 2.43724 8.93626C2.4098 8.93468 2.38233 8.93893 2.35665 8.94872C2.33097 8.9585 2.30766 8.97361 2.28823 8.99305C2.26879 9.01248 2.25368 9.03579 2.2439 9.06147C2.23411 9.08715 2.22986 9.11462 2.23144 9.14206V9.78656C2.05771 9.82815 1.90319 9.92733 1.79305 10.068C1.6829 10.2086 1.62362 10.3824 1.62486 10.561H1.41905C1.37088 10.5689 1.32709 10.5937 1.29549 10.6309C1.26388 10.6681 1.24653 10.7153 1.24653 10.7641C1.24653 10.8129 1.26388 10.8602 1.29549 10.8974C1.32709 10.9346 1.37088 10.9593 1.41905 10.9672H1.62486V12.1858H1.21866V11.98C1.21077 11.9318 1.18602 11.888 1.14882 11.8564C1.11161 11.8248 1.06438 11.8075 1.01557 11.8075C0.966753 11.8075 0.919521 11.8248 0.882318 11.8564C0.845115 11.888 0.820363 11.9318 0.812471 11.98V13.4044H0.606663C0.558491 13.4123 0.514703 13.437 0.4831 13.4742C0.451496 13.5114 0.434144 13.5587 0.434144 13.6075C0.434144 13.6563 0.451496 13.7035 0.4831 13.7407C0.514703 13.7779 0.558491 13.8027 0.606663 13.8106H0.812471V15.0291H0.606663C0.558491 15.037 0.514703 15.0618 0.4831 15.099C0.451496 15.1362 0.434144 15.1834 0.434144 15.2322C0.434144 15.2811 0.451496 15.3283 0.4831 15.3655C0.514703 15.4027 0.558491 15.4274 0.606663 15.4353H0.812471V18.6849H0.606663C0.558491 18.6928 0.514703 18.7175 0.4831 18.7547C0.451496 18.7919 0.434144 18.8392 0.434144 18.888C0.434144 18.9368 0.451496 18.984 0.4831 19.0212C0.514703 19.0584 0.558491 19.0832 0.606663 19.0911H0.812471V22.7468H0.205892C0.176442 22.742 0.146286 22.7436 0.117533 22.7516C0.0887791 22.7596 0.0620983 22.7737 0.039355 22.7931C0.0166116 22.8124 -0.00163324 22.8364 -0.0141628 22.8635C-0.0266924 22.8906 -0.0332031 22.9201 -0.0332031 22.9499C-0.0332031 22.9797 -0.0266924 23.0092 -0.0141628 23.0363C-0.00163324 23.0634 0.0166116 23.0874 0.039355 23.1068C0.0620983 23.1261 0.0887791 23.1402 0.117533 23.1482C0.146286 23.1562 0.176442 23.1578 0.205892 23.153H25.7906C25.8178 23.1554 25.8451 23.1519 25.8708 23.1428C25.8965 23.1336 25.92 23.119 25.9395 23.1C25.959 23.081 25.9742 23.0579 25.984 23.0325C25.9939 23.0071 25.9981 22.9798 25.9964 22.9526C25.9909 22.8932 25.9623 22.8383 25.9167 22.7998C25.8711 22.7613 25.8122 22.7423 25.7527 22.7468ZM24.7345 18.6849H22.2974V15.4353H24.7345V18.6849ZM23.5159 10.1548C23.5703 10.1508 23.625 10.1585 23.6761 10.1775C23.7272 10.1965 23.7736 10.2263 23.8122 10.2648C23.8507 10.3034 23.8805 10.3498 23.8995 10.4009C23.9184 10.4521 23.9262 10.5066 23.9221 10.561H23.1098C23.1098 10.4533 23.1525 10.35 23.2287 10.2738C23.3049 10.1976 23.4082 10.1548 23.5159 10.1548ZM23.1098 10.9672H23.9221V12.1858H23.1098V10.9672ZM22.2974 12.6299L22.9094 12.592H24.6966V13.4044H22.2595V12.6299H22.2974ZM24.7345 13.8106V15.0291H22.2974V13.8106H24.7345ZM21.8912 14.623V15.0291H21.6908C21.6613 15.0243 21.6312 15.026 21.6025 15.0339C21.5737 15.0419 21.547 15.0561 21.5243 15.0754C21.5015 15.0947 21.4833 15.1188 21.4707 15.1458C21.4582 15.1729 21.4517 15.2024 21.4517 15.2322C21.4517 15.2621 21.4582 15.2916 21.4707 15.3187C21.4833 15.3457 21.5015 15.3698 21.5243 15.3891C21.547 15.4084 21.5737 15.4226 21.6025 15.4305C21.6312 15.4385 21.6613 15.4402 21.6908 15.4353H21.8912V15.8415H18.6416V15.4353H18.8474C18.8956 15.4274 18.9394 15.4027 18.971 15.3655C19.0026 15.3283 19.02 15.2811 19.02 15.2322C19.02 15.1834 19.0026 15.1362 18.971 15.099C18.9394 15.0618 18.8956 15.037 18.8474 15.0291H18.6416V14.623H21.8912ZM11.3302 21.5282V17.8725C11.3302 17.4416 11.5014 17.0283 11.8061 16.7236C12.1108 16.4189 12.524 16.2477 12.9549 16.2477C13.3858 16.2477 13.7991 16.4189 14.1038 16.7236C14.4085 17.0283 14.5797 17.4416 14.5797 17.8725V22.7468H11.3302V21.5282ZM12.9549 15.8415C12.6401 15.844 12.33 15.9185 12.0483 16.0593C11.7667 16.2001 11.521 16.4035 11.3302 16.6539V15.4353H14.5797V16.6539C14.3926 16.3995 14.1477 16.1931 13.8653 16.0519C13.5828 15.9106 13.2707 15.8385 12.9549 15.8415ZM13.9731 15.0291H11.3302V14.2168H14.5797V15.0291H13.9731ZM10.1116 12.1858H10.924V12.9982H10.1116V12.1858ZM11.9422 12.1858H14.5797V12.9982H11.3302V12.1858H11.9422ZM10.924 9.34245H11.3302V10.9672H10.924V9.34245ZM11.7363 9.34245H14.1735V10.9672H13.7673V10.5231C13.7673 10.3077 13.6817 10.101 13.5294 9.94866C13.377 9.79631 13.1704 9.71073 12.9549 9.71073C12.7395 9.71073 12.5328 9.79631 12.3805 9.94866C12.2281 10.101 12.1425 10.3077 12.1425 10.5231V10.9672H11.7363V9.34245ZM14.9859 10.9672H14.5797V9.34245H14.9859V10.9672ZM13.3611 10.9672H12.5487V10.5231C12.5487 10.4154 12.5915 10.3121 12.6677 10.2359C12.7439 10.1597 12.8472 10.1169 12.9549 10.1169C13.0627 10.1169 13.166 10.1597 13.2422 10.2359C13.3183 10.3121 13.3611 10.4154 13.3611 10.5231V10.9672ZM12.1425 11.3734H13.7673V11.7796H12.1425V11.3734ZM15.7983 12.9982H14.9859V12.1858H15.7983V12.9982ZM9.91119 13.4044H16.6107V13.8106H9.29919V13.4044H9.91119ZM7.67442 14.4171V13.8106H8.893V14.0164C8.89133 14.0436 8.89556 14.0708 8.90539 14.0963C8.91522 14.1217 8.93045 14.1447 8.94998 14.1637C8.96952 14.1828 8.99292 14.1974 9.01861 14.2065C9.0443 14.2157 9.07164 14.2191 9.0988 14.2168H9.70538V15.0291H7.67442V14.4171ZM9.70538 15.4353V16.3723C9.58796 16.286 9.44477 16.2421 9.29919 16.2477C9.15382 16.2438 9.01117 16.2875 8.893 16.3723V15.4353H9.70538ZM9.70538 20.7158H8.893V19.9035C8.893 19.7957 8.93579 19.6924 9.01196 19.6162C9.08814 19.5401 9.19146 19.4973 9.29919 19.4973C9.40692 19.4973 9.51024 19.5401 9.58641 19.6162C9.66259 19.6924 9.70538 19.7957 9.70538 19.9035V20.7158ZM9.29919 19.0911C9.15382 19.0871 9.01117 19.1309 8.893 19.2156V18.2787H9.70538V19.2156C9.58796 19.1294 9.44477 19.0855 9.29919 19.0911ZM9.70538 17.8725H8.893V17.0601C8.893 16.9524 8.93579 16.8491 9.01196 16.7729C9.08814 16.6967 9.19146 16.6539 9.29919 16.6539C9.40692 16.6539 9.51024 16.6967 9.58641 16.7729C9.66259 16.8491 9.70538 16.9524 9.70538 17.0601V17.8725ZM8.893 21.122H9.70538V22.7468H8.893V21.122ZM10.1116 14.2168H10.924V15.0291H10.1116V14.2168ZM14.9859 14.2168H15.7983V15.0291H14.9859V14.2168ZM17.0169 20.7158H16.2045V19.9035C16.2045 19.7957 16.2473 19.6924 16.3234 19.6162C16.3996 19.5401 16.5029 19.4973 16.6107 19.4973C16.7184 19.4973 16.8217 19.5401 16.8979 19.6162C16.9741 19.6924 17.0169 19.7957 17.0169 19.9035V20.7158ZM16.6107 19.0911C16.4653 19.0871 16.3226 19.1309 16.2045 19.2156V18.2787H17.0169V19.2156C16.8994 19.1294 16.7563 19.0855 16.6107 19.0911ZM17.0169 17.8725H16.2045V17.0601C16.2045 16.9524 16.2473 16.8491 16.3234 16.7729C16.3996 16.6967 16.5029 16.6539 16.6107 16.6539C16.7184 16.6539 16.8217 16.6967 16.8979 16.7729C16.9741 16.8491 17.0169 16.9524 17.0169 17.0601V17.8725ZM16.2045 21.122H17.0169V22.7468H16.2045V21.122ZM17.0169 16.3723C16.8994 16.286 16.7563 16.2421 16.6107 16.2477C16.4653 16.2438 16.3226 16.2875 16.2045 16.3723V15.4353H17.0169V16.3723ZM16.2045 15.0291V14.2168H16.8165C16.8432 14.2183 16.87 14.2142 16.895 14.2047C16.92 14.1952 16.9428 14.1805 16.9617 14.1616C16.9806 14.1426 16.9953 14.1199 17.0048 14.0949C17.0143 14.0699 17.0184 14.0431 17.0169 14.0164V13.8106H18.2354V15.0291H16.2045ZM18.2354 13.4044H17.8292V12.3916C17.8341 12.3622 17.8324 12.332 17.8245 12.3032C17.8165 12.2745 17.8023 12.2478 17.783 12.2251C17.7637 12.2023 17.7396 12.1841 17.7126 12.1716C17.6855 12.159 17.656 12.1525 17.6261 12.1525C17.5963 12.1525 17.5668 12.159 17.5397 12.1716C17.5127 12.1841 17.4886 12.2023 17.4693 12.2251C17.45 12.2478 17.4358 12.2745 17.4278 12.3032C17.4199 12.332 17.4182 12.3622 17.4231 12.3916V13.4044H17.0169V11.3734H18.2354V13.4044ZM18.1975 10.9672H17.0602C17.1008 10.8487 17.1775 10.7458 17.2795 10.673C17.3814 10.6002 17.5036 10.561 17.6289 10.561C17.7542 10.561 17.8763 10.6002 17.9783 10.673C18.0803 10.7458 18.1569 10.8487 18.1975 10.9672ZM16.8544 10.5231C16.7362 10.6477 16.6523 10.8007 16.6107 10.9672H16.4103C16.3808 10.9624 16.3507 10.964 16.322 10.972C16.2932 10.98 16.2665 10.9941 16.2438 11.0135C16.221 11.0328 16.2028 11.0568 16.1902 11.0839C16.1777 11.111 16.1712 11.1405 16.1712 11.1703C16.1712 11.2002 16.1777 11.2296 16.1902 11.2567C16.2028 11.2838 16.221 11.3078 16.2438 11.3272C16.2665 11.3465 16.2932 11.3606 16.322 11.3686C16.3507 11.3766 16.3808 11.3782 16.4103 11.3734H16.6107V12.9982H16.2045V11.98C16.206 11.9533 16.202 11.9265 16.1924 11.9015C16.1829 11.8765 16.1682 11.8537 16.1493 11.8348C16.1304 11.8159 16.1076 11.8012 16.0826 11.7916C16.0576 11.7821 16.0308 11.778 16.0041 11.7796H14.1735V11.3734H15.5979C15.6461 11.3655 15.6899 11.3408 15.7215 11.3036C15.7531 11.2664 15.7704 11.2191 15.7704 11.1703C15.7704 11.1215 15.7531 11.0743 15.7215 11.0371C15.6899 10.9999 15.6461 10.9751 15.5979 10.9672H15.3921V9.34245H15.8416C15.8822 9.6146 15.9988 9.86975 16.178 10.0786C16.3571 10.2875 16.5916 10.4415 16.8544 10.5231ZM15.7712 8.12387H15.365V7.31148H15.7712V8.12387ZM10.8969 7.31148H11.7093V8.12387H10.8969V7.31148ZM12.1155 7.31148H13.7402V8.12387H12.1155V7.31148ZM14.1464 7.31148H14.9588V8.12387H14.1464V7.31148ZM12.9279 2.03098C13.0543 2.02573 13.1789 2.06285 13.282 2.13643C13.385 2.21 13.4605 2.31583 13.4965 2.43717H12.3646C12.3953 2.31801 12.4657 2.21287 12.5641 2.13904C12.6625 2.06521 12.7832 2.02709 12.9062 2.03098H12.9279ZM12.3213 2.84336H13.5399V4.09986C13.4068 4.06872 13.2702 4.05596 13.1337 4.06194V3.45536C13.1385 3.42591 13.1369 3.39576 13.1289 3.367C13.1209 3.33825 13.1067 3.31157 13.0874 3.28883C13.0681 3.26608 13.0441 3.24784 13.017 3.23531C12.9899 3.22278 12.9604 3.21627 12.9306 3.21627C12.9007 3.21627 12.8712 3.22278 12.8442 3.23531C12.8171 3.24784 12.793 3.26608 12.7737 3.28883C12.7544 3.31157 12.7402 3.33825 12.7323 3.367C12.7243 3.39576 12.7226 3.42591 12.7275 3.45536V4.06194C12.6029 4.06194 12.4404 4.09986 12.3213 4.09986V2.84336ZM12.9279 4.46813C13.6101 4.47023 14.2688 4.71754 14.7838 5.16496C15.2988 5.61237 15.6358 6.23006 15.7333 6.90529H10.1549C10.2512 6.23052 10.587 5.61292 11.1012 5.16542C11.6153 4.71792 12.2733 4.47041 12.9549 4.46813H12.9279ZM10.0845 7.31148H10.4907V8.12387H10.0845V7.31148ZM9.27212 8.53006H16.5836V8.93626H9.27212V8.53006ZM10.0845 9.34245H10.534V10.9672H10.3282C10.2801 10.9751 10.2363 10.9999 10.2047 11.0371C10.1731 11.0743 10.1557 11.1215 10.1557 11.1703C10.1557 11.2191 10.1731 11.2664 10.2047 11.3036C10.2363 11.3408 10.2801 11.3655 10.3282 11.3734H11.7526V11.7796H9.92745C9.90029 11.7772 9.87291 11.7807 9.84723 11.7899C9.82154 11.799 9.79814 11.8136 9.7786 11.8326C9.75907 11.8516 9.74387 11.8747 9.73404 11.9001C9.72421 11.9255 9.71998 11.9528 9.72165 11.98V12.9982H9.31545V11.3734H9.51584C9.54529 11.3782 9.57544 11.3766 9.6042 11.3686C9.63295 11.3606 9.6596 11.3465 9.68234 11.3272C9.70509 11.3078 9.72336 11.2838 9.73589 11.2567C9.74842 11.2296 9.7549 11.2002 9.7549 11.1703C9.7549 11.1405 9.74842 11.111 9.73589 11.0839C9.72336 11.0568 9.70509 11.0328 9.68234 11.0135C9.6596 10.9941 9.63295 10.98 9.6042 10.972C9.57544 10.964 9.54529 10.9624 9.51584 10.9672H9.31545C9.27383 10.8007 9.18987 10.6477 9.07173 10.5231C9.33113 10.4356 9.56211 10.2798 9.74036 10.072C9.9186 9.86417 10.0375 9.61214 10.0845 9.34245ZM8.25934 10.561C8.38562 10.5567 8.5098 10.5942 8.61261 10.6676C8.71543 10.7411 8.79113 10.8464 8.82801 10.9672H7.69068C7.73098 10.8537 7.80385 10.7547 7.90019 10.6824C7.99653 10.6102 8.11205 10.5679 8.23227 10.561H8.25934ZM8.86592 11.3734V13.4044H8.45973V12.3916C8.46455 12.3622 8.46292 12.332 8.45494 12.3032C8.44695 12.2745 8.43281 12.2478 8.41348 12.2251C8.39416 12.2023 8.37013 12.1841 8.34304 12.1716C8.31596 12.159 8.28648 12.1525 8.25663 12.1525C8.22679 12.1525 8.19731 12.159 8.17023 12.1716C8.14314 12.1841 8.1191 12.2023 8.09978 12.2251C8.08046 12.2478 8.06632 12.2745 8.05833 12.3032C8.05034 12.332 8.04871 12.3622 8.05354 12.3916V13.4044H7.64734V11.3734H8.86592ZM7.24115 14.623V15.0291H7.04076C7.01132 15.0243 6.98116 15.026 6.95241 15.0339C6.92365 15.0419 6.897 15.0561 6.87426 15.0754C6.85152 15.0947 6.83324 15.1188 6.82071 15.1458C6.80818 15.1729 6.80167 15.2024 6.80167 15.2322C6.80167 15.2621 6.80818 15.2916 6.82071 15.3187C6.83324 15.3457 6.85152 15.3698 6.87426 15.3891C6.897 15.4084 6.92365 15.4226 6.95241 15.4305C6.98116 15.4385 7.01132 15.4402 7.04076 15.4353H7.24115V15.8415H3.99161V15.4353H4.19741C4.24559 15.4274 4.28937 15.4027 4.32098 15.3655C4.35258 15.3283 4.36993 15.2811 4.36993 15.2322C4.36993 15.1834 4.35258 15.1362 4.32098 15.099C4.28937 15.0618 4.24559 15.037 4.19741 15.0291H3.99161V14.623H7.24115ZM2.36683 10.1548C2.42121 10.1508 2.47581 10.1585 2.52692 10.1775C2.57804 10.1965 2.62449 10.2263 2.66305 10.2648C2.70161 10.3034 2.73137 10.3498 2.75035 10.4009C2.76933 10.4521 2.77707 10.5066 2.77303 10.561H1.96064C1.95749 10.5069 1.96584 10.4526 1.98514 10.4019C2.00443 10.3512 2.03427 10.3052 2.07263 10.2668C2.111 10.2285 2.15703 10.1986 2.20773 10.1793C2.25844 10.16 2.31267 10.1517 2.36683 10.1548ZM1.96064 10.9672H2.77303V12.1858H1.96064V10.9672ZM1.14825 12.6299L1.71692 12.592H3.5475V13.4044H1.11034V12.6299H1.14825ZM1.14825 13.8106H3.58541V15.0291H1.14825V13.8106ZM1.14825 15.4353H3.58541V18.6849H1.14825V15.4353ZM1.14825 19.0911H3.58541V22.7468H1.14825V19.0911ZM3.99161 19.0911H4.19741C4.24559 19.0832 4.28937 19.0584 4.32098 19.0212C4.35258 18.984 4.36993 18.9368 4.36993 18.888C4.36993 18.8392 4.35258 18.7919 4.32098 18.7547C4.28937 18.7175 4.24559 18.6928 4.19741 18.6849H3.99161V16.2477H7.24115V22.7468H3.99161V19.0911ZM7.64734 22.7468V15.4353H8.45973V22.7468H7.64734ZM10.0845 22.7468V15.4353H10.8969V22.7468H10.0845ZM14.9588 22.7468V15.4353H15.7712V22.7468H14.9588ZM17.396 20.9162V15.4353H18.2084V22.7468H17.396V20.9162ZM18.6146 16.2477H21.8641V18.6849H21.6637C21.6343 18.6801 21.6041 18.6817 21.5754 18.6897C21.5466 18.6977 21.52 18.7118 21.4972 18.7311C21.4745 18.7504 21.4562 18.7745 21.4437 18.8016C21.4311 18.8287 21.4246 18.8581 21.4246 18.888C21.4246 18.9178 21.4311 18.9473 21.4437 18.9744C21.4562 19.0015 21.4745 19.0255 21.4972 19.0448C21.52 19.0641 21.5466 19.0783 21.5754 19.0863C21.6041 19.0943 21.6343 19.0959 21.6637 19.0911H21.8641V22.7468H18.6146V16.2477ZM22.2703 22.7468V19.0911H24.7075V22.7468H22.2703Z" fill="black"/>
<path d="M6.25697 19.5H5.03822C5.01078 19.4984 4.98334 19.5027 4.95765 19.5125C4.93197 19.5222 4.90862 19.5374 4.88918 19.5568C4.86975 19.5762 4.85464 19.5995 4.84485 19.6252C4.83506 19.6509 4.83081 19.6784 4.83238 19.7058V21.3308C4.83072 21.3581 4.83495 21.3853 4.84478 21.4107C4.85462 21.4362 4.86984 21.4592 4.88938 21.4782C4.90892 21.4972 4.93233 21.5118 4.95802 21.521C4.98371 21.5301 5.01105 21.5336 5.03822 21.5312H6.25697C6.2837 21.5328 6.31046 21.5287 6.33549 21.5192C6.36052 21.5097 6.38327 21.495 6.40221 21.476C6.42114 21.4571 6.43584 21.4344 6.44535 21.4094C6.45487 21.3843 6.45896 21.3576 6.45739 21.3308V19.7058C6.45977 19.6787 6.45629 19.6513 6.44714 19.6256C6.43799 19.5999 6.42338 19.5765 6.40436 19.557C6.38533 19.5374 6.36232 19.5222 6.33688 19.5124C6.31144 19.5026 6.28419 19.4983 6.25697 19.5ZM6.05114 19.9062V20.3125H5.23864V19.9062H6.05114ZM6.05114 21.125H5.23864V20.7187H6.05114V21.125ZM6.25697 16.6562H5.03822C5.01105 16.6539 4.98371 16.6573 4.95802 16.6665C4.93233 16.6756 4.90892 16.6903 4.88938 16.7093C4.86984 16.7283 4.85462 16.7513 4.84478 16.7768C4.83495 16.8022 4.83072 16.8294 4.83238 16.8567V18.4817C4.83081 18.5091 4.83506 18.5366 4.84485 18.5623C4.85464 18.5879 4.86975 18.6113 4.88918 18.6307C4.90862 18.6501 4.93197 18.6652 4.95765 18.675C4.98334 18.6848 5.01078 18.6891 5.03822 18.6875H6.25697C6.28419 18.6892 6.31144 18.6849 6.33688 18.6751C6.36232 18.6653 6.38533 18.6501 6.40436 18.6305C6.42338 18.611 6.43799 18.5876 6.44714 18.5619C6.45629 18.5362 6.45977 18.5088 6.45739 18.4817V16.8567C6.45896 16.8299 6.45487 16.8032 6.44535 16.7781C6.43584 16.7531 6.42114 16.7304 6.40221 16.7115C6.38327 16.6925 6.36052 16.6778 6.33549 16.6683C6.31046 16.6588 6.2837 16.6547 6.25697 16.6562ZM6.05114 17.0625V17.4687H5.23864V17.0625H6.05114ZM6.05114 18.2812H5.23864V17.875H6.05114V18.2812ZM3.00697 19.5H1.78822C1.76078 19.4984 1.73334 19.5027 1.70765 19.5125C1.68197 19.5222 1.65862 19.5374 1.63918 19.5568C1.61975 19.5762 1.60464 19.5995 1.59485 19.6252C1.58506 19.6509 1.58081 19.6784 1.58238 19.7058V21.3308C1.58072 21.3581 1.58495 21.3853 1.59478 21.4107C1.60461 21.4362 1.61984 21.4592 1.63938 21.4782C1.65892 21.4972 1.68233 21.5118 1.70801 21.521C1.7337 21.5301 1.76105 21.5336 1.78822 21.5312H3.00697C3.0337 21.5328 3.06046 21.5287 3.08549 21.5192C3.11052 21.5097 3.13327 21.495 3.15221 21.476C3.17114 21.4571 3.18584 21.4344 3.19535 21.4094C3.20486 21.3843 3.20896 21.3576 3.20738 21.3308V19.7058C3.20977 19.6787 3.20629 19.6513 3.19714 19.6256C3.18799 19.5999 3.17338 19.5765 3.15436 19.557C3.13533 19.5374 3.11231 19.5222 3.08688 19.5124C3.06144 19.5026 3.03419 19.4983 3.00697 19.5ZM2.80113 21.125H1.98863V19.9062H2.80113V21.125Z" fill="black"/>
<path d="M13.1621 7.7188C13.1621 7.74558 13.1568 7.77208 13.1464 7.79676C13.136 7.82143 13.1207 7.8438 13.1015 7.86248C13.0823 7.88116 13.0596 7.89581 13.0346 7.90556C13.0097 7.91531 12.983 7.91994 12.9563 7.91921C12.9031 7.91921 12.8522 7.89811 12.8146 7.86053C12.777 7.82294 12.7559 7.77195 12.7559 7.7188C12.7559 7.66564 12.777 7.61465 12.8146 7.57707C12.8522 7.53948 12.9031 7.51838 12.9563 7.51838C12.983 7.51766 13.0097 7.52229 13.0346 7.53204C13.0596 7.54179 13.0823 7.55643 13.1015 7.57512C13.1207 7.5938 13.136 7.61617 13.1464 7.64084C13.1568 7.66552 13.1621 7.69202 13.1621 7.7188Z" fill="black"/>
<path d="M2.59908 14.4192C2.59908 14.4738 2.57741 14.5261 2.53881 14.5647C2.50021 14.6033 2.44784 14.625 2.39325 14.625C2.34507 14.6171 2.30127 14.5924 2.26967 14.5551C2.23806 14.5179 2.2207 14.4707 2.2207 14.4219C2.2207 14.3731 2.23806 14.3258 2.26967 14.2886C2.30127 14.2514 2.34507 14.2266 2.39325 14.2188C2.44691 14.2187 2.49848 14.2397 2.53693 14.2771C2.57538 14.3145 2.59767 14.3655 2.59908 14.4192Z" fill="black"/>
<path d="M22.9132 17.875H24.132C24.1592 17.8767 24.1864 17.8724 24.2119 17.8626C24.2373 17.8528 24.2603 17.8376 24.2794 17.818C24.2984 17.7985 24.313 17.7751 24.3221 17.7494C24.3313 17.7237 24.3348 17.6963 24.3324 17.6692V16.0442C24.334 16.0174 24.3299 15.9907 24.3204 15.9656C24.3108 15.9406 24.2961 15.9179 24.2772 15.899C24.2583 15.88 24.2355 15.8653 24.2105 15.8558C24.1855 15.8463 24.1587 15.8422 24.132 15.8437H22.9132C22.8861 15.8414 22.8587 15.8448 22.833 15.854C22.8073 15.8631 22.7839 15.8778 22.7644 15.8968C22.7448 15.9158 22.7296 15.9388 22.7198 15.9643C22.71 15.9897 22.7057 16.0169 22.7074 16.0442V17.6692C22.7058 17.6966 22.7101 17.7241 22.7198 17.7498C22.7296 17.7754 22.7447 17.7988 22.7642 17.8182C22.7836 17.8376 22.807 17.8527 22.8327 17.8625C22.8583 17.8723 22.8858 17.8766 22.9132 17.875ZM23.1136 17.4687V17.0625H23.9261V17.4687H23.1136ZM23.9261 16.25V16.6562H23.1136V16.25H23.9261ZM20.882 19.5H19.6632C19.6358 19.4984 19.6083 19.5027 19.5827 19.5125C19.557 19.5222 19.5336 19.5374 19.5142 19.5568C19.4947 19.5762 19.4796 19.5995 19.4698 19.6252C19.4601 19.6509 19.4558 19.6784 19.4574 19.7058V21.3308C19.4557 21.3581 19.4599 21.3853 19.4698 21.4107C19.4796 21.4362 19.4948 21.4592 19.5144 21.4782C19.5339 21.4972 19.5573 21.5118 19.583 21.521C19.6087 21.5301 19.6361 21.5336 19.6632 21.5312H20.882C20.9087 21.5328 20.9355 21.5287 20.9605 21.5192C20.9855 21.5097 21.0083 21.495 21.0272 21.476C21.0461 21.4571 21.0608 21.4344 21.0704 21.4093C21.0799 21.3843 21.084 21.3576 21.0824 21.3308V19.7058C21.0848 19.6787 21.0813 19.6513 21.0721 19.6256C21.063 19.5999 21.0484 19.5765 21.0294 19.557C21.0103 19.5374 20.9873 19.5222 20.9619 19.5124C20.9364 19.5026 20.9092 19.4983 20.882 19.5ZM19.8636 19.9062H20.6761V20.3125H19.8636V19.9062ZM19.8636 21.125V20.7187H20.6761V21.125H19.8636ZM20.882 16.6562H19.6632C19.6361 16.6539 19.6087 16.6573 19.583 16.6665C19.5573 16.6756 19.5339 16.6903 19.5144 16.7093C19.4948 16.7283 19.4796 16.7513 19.4698 16.7768C19.4599 16.8022 19.4557 16.8294 19.4574 16.8567V18.4817C19.4558 18.5091 19.4601 18.5366 19.4698 18.5623C19.4796 18.5879 19.4947 18.6113 19.5142 18.6307C19.5336 18.6501 19.557 18.6652 19.5827 18.675C19.6083 18.6848 19.6358 18.6891 19.6632 18.6875H20.882C20.9092 18.6892 20.9364 18.6849 20.9619 18.6751C20.9873 18.6653 21.0103 18.6501 21.0294 18.6305C21.0484 18.611 21.063 18.5876 21.0721 18.5619C21.0813 18.5362 21.0848 18.5088 21.0824 18.4817V16.8567C21.084 16.8299 21.0799 16.8032 21.0704 16.7781C21.0608 16.7531 21.0461 16.7304 21.0272 16.7115C21.0083 16.6925 20.9855 16.6778 20.9605 16.6683C20.9355 16.6588 20.9087 16.6547 20.882 16.6562ZM19.8636 17.0625H20.6761V17.4687H19.8636V17.0625ZM19.8636 18.2812V17.875H20.6761V18.2812H19.8636ZM24.132 19.5H22.9132C22.8858 19.4984 22.8583 19.5027 22.8327 19.5125C22.807 19.5222 22.7836 19.5374 22.7642 19.5568C22.7447 19.5762 22.7296 19.5995 22.7198 19.6252C22.7101 19.6509 22.7058 19.6784 22.7074 19.7058V21.3308C22.7057 21.3581 22.71 21.3853 22.7198 21.4107C22.7296 21.4362 22.7448 21.4592 22.7644 21.4782C22.7839 21.4972 22.8073 21.5118 22.833 21.521C22.8587 21.5301 22.8861 21.5336 22.9132 21.5312H24.132C24.1587 21.5328 24.1855 21.5287 24.2105 21.5192C24.2355 21.5097 24.2583 21.495 24.2772 21.476C24.2961 21.4571 24.3108 21.4344 24.3204 21.4093C24.3299 21.3843 24.334 21.3576 24.3324 21.3308V19.7058C24.3348 19.6787 24.3313 19.6513 24.3221 19.6256C24.313 19.5999 24.2984 19.5765 24.2794 19.557C24.2603 19.5374 24.2373 19.5222 24.2119 19.5124C24.1864 19.5026 24.1592 19.4983 24.132 19.5ZM23.9261 21.125H23.1136V19.9062H23.9261V21.125Z" fill="black"/>
<path d="M23.7241 14.4192C23.7241 14.4738 23.7024 14.5261 23.6638 14.5647C23.6252 14.6033 23.5728 14.625 23.5182 14.625C23.4701 14.6171 23.4263 14.5924 23.3947 14.5551C23.3631 14.5179 23.3457 14.4707 23.3457 14.4219C23.3457 14.3731 23.3631 14.3258 23.3947 14.2886C23.4263 14.2514 23.4701 14.2266 23.5182 14.2188C23.5719 14.2187 23.6235 14.2397 23.6619 14.2771C23.7004 14.3145 23.7227 14.3655 23.7241 14.4192Z" fill="black"/>
</g>
<defs>
<clipPath id="clip0_865_4790">
<rect width="26" height="23.1562" fill="white"/>
</clipPath>
</defs>
</svg>
