<svg width="21" height="21" viewBox="0 0 21 21" fill="none" xmlns="http://www.w3.org/2000/svg">
<path d="M21 6.77855C21 7.46367 21 8.14879 21 8.82872C20.782 8.82872 20.5588 8.82872 20.3356 8.82872C20.3356 9.17128 20.3356 9.49308 20.3356 9.81488C20.5692 9.81488 20.782 9.81488 21 9.81488C21 10.0484 21 10.282 21 10.5104C20.7768 10.5104 20.5588 10.5104 20.3356 10.5104C20.3356 10.8633 20.3356 11.1903 20.3356 11.5381C20.5692 11.5381 20.782 11.5381 21 11.5381C21 12.2076 21 12.8772 21 13.5519C20.782 13.5519 20.564 13.5519 20.3253 13.5519C20.3253 16.0536 20.3253 18.5294 20.3253 21.0052C13.7595 21.0052 7.21972 21.0052 0.653978 21.0052C0.653978 18.519 0.653978 16.0433 0.653978 13.5519C0.420414 13.5519 0.212803 13.5519 0 13.5519C0 12.872 0 12.2128 0 11.5329C0.217993 11.5329 0.430795 11.5329 0.653978 11.5329C0.653978 11.1851 0.653978 10.8529 0.653978 10.5C0.425605 10.5 0.212803 10.5 0 10.5C0 10.2664 0 10.0588 0 9.83045C0.223183 9.83045 0.430795 9.83045 0.653978 9.83045C0.653978 9.48789 0.653978 9.1609 0.653978 8.81834C0.430795 8.81834 0.223183 8.81834 0 8.81834C0 8.13322 0 7.46886 0 6.77855C1.57785 6.77855 3.14533 6.77855 4.74394 6.77855C4.74394 4.96194 4.74394 3.16609 4.74394 1.35467C4.97751 1.35467 5.18512 1.35467 5.4083 1.35467C5.4083 0.892733 5.4083 0.446367 5.4083 0.00519031C5.64187 0.00519031 5.87543 0.00519031 6.10381 0.00519031C6.10381 0.451557 6.10381 0.897924 6.10381 1.36505C6.33218 1.36505 6.53979 1.36505 6.77336 1.36505C6.77336 2.27336 6.77336 3.16609 6.77336 4.05363C9.2699 4.05363 11.7405 4.05363 14.237 4.05363C14.237 3.15052 14.237 2.25779 14.237 1.34948C14.4706 1.34948 14.6782 1.34948 14.891 1.34948C14.891 0.887543 14.891 0.446367 14.891 0C15.1246 0 15.3581 0 15.5865 0C15.5865 0.446367 15.5865 0.897924 15.5865 1.36505C15.8201 1.36505 16.0329 1.36505 16.2664 1.36505C16.2664 3.17647 16.2664 4.97232 16.2664 6.77336C17.8547 6.77855 19.4273 6.77855 21 6.77855ZM14.2111 12.218C11.7249 12.218 9.25432 12.218 6.77336 12.218C6.77336 14.9273 6.77336 17.6263 6.77336 20.3304C7.21972 20.3304 7.65571 20.3304 8.11765 20.3304C8.11765 20.2474 8.11765 20.1747 8.11765 20.1021C8.11765 19.1782 8.11246 18.2543 8.12284 17.3304C8.12803 17.0242 8.14879 16.7128 8.21107 16.4118C8.47059 15.1298 9.20761 14.2007 10.3547 13.5986C10.4221 13.5623 10.5311 13.5519 10.5986 13.583C11.1696 13.8685 11.6574 14.2526 12.0467 14.7612C12.6228 15.519 12.8668 16.3858 12.872 17.3253C12.872 18.2491 12.872 19.173 12.872 20.0969C12.872 20.1695 12.872 20.2422 12.872 20.3201C13.3339 20.3201 13.7751 20.3201 14.2163 20.3201C14.2111 17.6159 14.2111 14.9221 14.2111 12.218ZM8.79758 20.3304C9.93945 20.3304 11.0502 20.3304 12.1609 20.3304C12.1713 20.2993 12.1765 20.2785 12.1765 20.2578C12.1713 19.1367 12.2128 18.0156 12.1505 16.8945C12.0882 15.7889 11.5173 14.9377 10.5727 14.3512C10.5311 14.3253 10.4377 14.3253 10.3962 14.3512C9.43599 14.9533 8.87024 15.8201 8.81315 16.9567C8.76124 17.9637 8.79758 18.981 8.79239 19.9931C8.79758 20.0969 8.79758 20.2059 8.79758 20.3304ZM19.6298 20.3304C19.6298 18.5242 19.6298 16.7336 19.6298 14.9325C18.4983 14.9325 17.3824 14.9325 16.2612 14.9325C16.2612 16.7388 16.2612 18.5242 16.2612 20.3253C16.4844 20.3253 16.6972 20.3253 16.9308 20.3253C16.9308 20.237 16.9308 20.1644 16.9308 20.0917C16.9308 19.6142 16.9308 19.1367 16.9308 18.654C16.936 18.2751 17.0969 17.9792 17.4187 17.782C18.0623 17.3824 18.9031 17.808 18.9446 18.5657C18.9758 19.0744 18.955 19.5882 18.9602 20.1021C18.9602 20.1747 18.9654 20.2474 18.9706 20.3253C19.2042 20.3304 19.4118 20.3304 19.6298 20.3304ZM4.71799 14.9377C3.58131 14.9377 2.4654 14.9377 1.35467 14.9377C1.35467 16.7491 1.35467 18.5398 1.35467 20.3304C1.58305 20.3304 1.79066 20.3304 1.99308 20.3304C2.00346 20.3045 2.01384 20.2889 2.01384 20.2785C2.01384 19.7958 2.01384 19.308 2.01903 18.8253C2.01903 18.6851 2.02422 18.5346 2.05536 18.3997C2.17993 17.9066 2.63668 17.6003 3.13495 17.6522C3.64879 17.7093 4.02768 18.1038 4.04325 18.6228C4.05363 19.1211 4.04844 19.6194 4.04844 20.1176C4.04844 20.1903 4.04844 20.263 4.04844 20.3304C4.29239 20.3304 4.5 20.3304 4.71799 20.3304C4.71799 18.5294 4.71799 16.7388 4.71799 14.9377ZM6.76816 9.47751C9.25951 9.47751 11.7353 9.47751 14.2059 9.47751C14.2059 8.35121 14.2059 7.24048 14.2059 6.12976C11.7197 6.12976 9.24913 6.12976 6.76816 6.12976C6.76816 7.24567 6.76816 8.35121 6.76816 9.47751ZM6.07266 20.3304C6.07266 14.6886 6.07266 9.05709 6.07266 3.41522C5.84429 3.41522 5.63149 3.41522 5.41868 3.41522C5.41868 9.06228 5.41868 14.6938 5.41868 20.3304C5.64187 20.3304 5.84948 20.3304 6.07266 20.3304ZM14.9066 3.41003C14.9066 9.0519 14.9066 14.6834 14.9066 20.3253C15.1349 20.3253 15.3478 20.3253 15.5657 20.3253C15.5657 14.6782 15.5657 9.04671 15.5657 3.41003C15.3374 3.41003 15.1298 3.41003 14.9066 3.41003ZM4.71799 8.8391C3.5865 8.8391 2.47059 8.8391 1.35467 8.8391C1.35467 9.74221 1.35467 10.6349 1.35467 11.5277C2.48097 11.5277 3.5917 11.5277 4.71799 11.5277C4.71799 10.6298 4.71799 9.7474 4.71799 8.8391ZM16.2664 8.8391C16.2664 9.74221 16.2664 10.6349 16.2664 11.5225C17.3979 11.5225 18.519 11.5225 19.6349 11.5225C19.6349 10.6194 19.6349 9.73183 19.6349 8.8391C18.5035 8.8391 17.3875 8.8391 16.2664 8.8391ZM6.76816 5.41349C9.25951 5.41349 11.7353 5.41349 14.2059 5.41349C14.2059 5.19031 14.2059 4.97751 14.2059 4.77509C11.7197 4.77509 9.24913 4.77509 6.76816 4.77509C6.76816 4.98789 6.76816 5.19031 6.76816 5.41349ZM4.71799 12.218C3.35813 12.218 2.02422 12.218 0.67474 12.218C0.67474 12.4412 0.67474 12.654 0.67474 12.8772C2.02941 12.8772 3.36851 12.8772 4.71799 12.8772C4.71799 12.654 4.71799 12.4464 4.71799 12.218ZM16.2612 12.8824C17.6211 12.8824 18.955 12.8824 20.3045 12.8824C20.3045 12.6592 20.3045 12.4464 20.3045 12.2232C18.9498 12.2232 17.6107 12.2232 16.2612 12.2232C16.2612 12.4464 16.2612 12.654 16.2612 12.8824ZM4.72318 7.48443C3.35813 7.48443 2.01903 7.48443 0.679931 7.48443C0.679931 7.70761 0.679931 7.91522 0.679931 8.12284C2.0346 8.12284 3.37889 8.12284 4.72318 8.12284C4.72318 7.90484 4.72318 7.70242 4.72318 7.48443ZM20.3097 7.48443C18.9498 7.48443 17.6107 7.48443 16.2612 7.48443C16.2612 7.70761 16.2612 7.91523 16.2612 8.12803C17.6159 8.12803 18.955 8.12803 20.3097 8.12803C20.3097 7.91003 20.3097 7.70761 20.3097 7.48443ZM2.69896 20.346C2.79758 20.346 2.87543 20.346 2.95329 20.346C3.3737 20.346 3.3737 20.346 3.3737 19.9256C3.3737 19.5104 3.37889 19.09 3.36851 18.6747C3.36332 18.4619 3.22837 18.327 3.04671 18.3166C2.87543 18.3062 2.70415 18.436 2.69896 18.6228C2.68858 19.1886 2.69896 19.7543 2.69896 20.346ZM18.2803 20.3408C18.2803 19.7543 18.2855 19.1886 18.2751 18.6228C18.2699 18.436 18.0986 18.3062 17.9273 18.3166C17.7457 18.327 17.6107 18.4619 17.6055 18.6747C17.5952 19.1886 17.6003 19.6972 17.6055 20.2111C17.6055 20.2526 17.673 20.3304 17.7145 20.3356C17.9014 20.3512 18.083 20.3408 18.2803 20.3408ZM12.192 10.1886C12.192 10.6453 12.192 11.0761 12.192 11.5225C12.4152 11.5225 12.628 11.5225 12.8512 11.5225C12.8512 11.0709 12.8512 10.6349 12.8512 10.1886C12.628 10.1886 12.4204 10.1886 12.192 10.1886ZM14.2059 11.5329C14.2059 11.0761 14.2059 10.6401 14.2059 10.199C13.9775 10.199 13.7647 10.199 13.5519 10.199C13.5519 10.6505 13.5519 11.0917 13.5519 11.5329C13.7751 11.5329 13.9827 11.5329 14.2059 11.5329ZM8.79239 10.1938C8.55882 10.1938 8.34602 10.1938 8.12803 10.1938C8.12803 10.6453 8.12803 11.0813 8.12803 11.5173C8.3564 11.5173 8.5692 11.5173 8.79239 11.5173C8.79239 11.0709 8.79239 10.6453 8.79239 10.1938ZM6.76298 11.5225C6.99654 11.5225 7.20934 11.5225 7.42734 11.5225C7.42734 11.0709 7.42734 10.6349 7.42734 10.199C7.19896 10.199 6.98097 10.199 6.76298 10.199C6.76298 10.6453 6.76298 11.0709 6.76298 11.5225ZM9.4827 10.1886C9.4827 10.6453 9.4827 11.0813 9.4827 11.5225C9.70588 11.5225 9.92387 11.5225 10.1419 11.5225C10.1419 11.0709 10.1419 10.6349 10.1419 10.1886C9.91349 10.1886 9.70588 10.1886 9.4827 10.1886ZM10.8374 11.5225C11.0606 11.5225 11.2785 11.5225 11.4965 11.5225C11.4965 11.0709 11.4965 10.6349 11.4965 10.199C11.2682 10.199 11.0554 10.199 10.8374 10.199C10.8374 10.6453 10.8374 11.0813 10.8374 11.5225ZM16.9204 13.5779C16.6972 13.5779 16.4844 13.5779 16.2664 13.5779C16.2664 13.8062 16.2664 14.019 16.2664 14.2318C16.4948 14.2318 16.7128 14.2318 16.9204 14.2318C16.9204 14.0035 16.9204 13.7958 16.9204 13.5779ZM4.06401 13.5727C4.06401 13.8062 4.06401 14.019 4.06401 14.237C4.2872 14.237 4.49481 14.237 4.71799 14.237C4.71799 14.0138 4.71799 13.801 4.71799 13.5727C4.49481 13.5727 4.2872 13.5727 4.06401 13.5727ZM2.00346 14.237C2.00346 14.0035 2.00346 13.7907 2.00346 13.5727C1.78028 13.5727 1.56747 13.5727 1.34948 13.5727C1.34948 13.7958 1.34948 14.0086 1.34948 14.237C1.56747 14.237 1.77509 14.237 2.00346 14.237ZM3.36332 13.5727C3.12976 13.5727 2.92214 13.5727 2.70415 13.5727C2.70415 13.7958 2.70415 14.0138 2.70415 14.2318C2.92734 14.2318 3.14014 14.2318 3.36332 14.2318C3.36332 14.0086 3.36332 13.801 3.36332 13.5727ZM18.2699 14.237C18.2699 14.0035 18.2699 13.7907 18.2699 13.5727C18.0467 13.5727 17.8391 13.5727 17.6159 13.5727C17.6159 13.7958 17.6159 14.0138 17.6159 14.237C17.8391 14.237 18.0467 14.237 18.2699 14.237ZM19.6349 13.5779C19.4014 13.5779 19.1938 13.5779 18.9758 13.5779C18.9758 13.8062 18.9758 14.019 18.9758 14.237C19.2042 14.237 19.417 14.237 19.6349 14.237C19.6349 14.0086 19.6349 13.801 19.6349 13.5779ZM6.07786 2.70934C6.07786 2.49135 6.07786 2.28374 6.07786 2.06055C5.85467 2.06055 5.64187 2.06055 5.42388 2.06055C5.42388 2.28374 5.42388 2.49654 5.42388 2.70934C5.64706 2.70934 5.85467 2.70934 6.07786 2.70934ZM15.5606 2.70934C15.5606 2.47578 15.5606 2.26817 15.5606 2.05536C15.3374 2.05536 15.1246 2.05536 14.9066 2.05536C14.9066 2.27855 14.9066 2.49135 14.9066 2.70934C15.1349 2.70934 15.3426 2.70934 15.5606 2.70934Z" fill="black"/>
<path d="M7.45117 13.5467C7.45117 13.3339 7.45117 13.1263 7.45117 12.9031C7.66397 12.9031 7.87159 12.9031 8.09477 12.9031C8.09477 13.1107 8.09477 13.3183 8.09477 13.5467C7.88716 13.5467 7.67436 13.5467 7.45117 13.5467Z" fill="black"/>
<path d="M13.5206 13.5519C13.3026 13.5519 13.0949 13.5519 12.877 13.5519C12.877 13.3339 12.877 13.1263 12.877 12.9031C13.0898 12.9031 13.2974 12.9031 13.5206 12.9031C13.5206 13.1159 13.5206 13.3235 13.5206 13.5519Z" fill="black"/>
<path d="M13.5245 6.79926C13.5245 7.474 13.5245 8.13836 13.5245 8.8131C11.5003 8.8131 9.48644 8.8131 7.45703 8.8131C7.45703 8.14355 7.45703 7.47919 7.45703 6.79926C9.47087 6.79926 11.4899 6.79926 13.5245 6.79926ZM12.855 7.48438C11.2719 7.48438 9.70444 7.48438 8.12658 7.48438C8.12658 7.70237 8.12658 7.91517 8.12658 8.13317C9.70963 8.13317 11.2771 8.13317 12.855 8.13317C12.855 7.90998 12.855 7.70237 12.855 7.48438Z" fill="black"/>
<path d="M3.38672 9.85114C3.59952 9.85114 3.80713 9.85114 4.03032 9.85114C4.03032 10.0691 4.03032 10.2819 4.03032 10.5051C3.81752 10.5051 3.6099 10.5051 3.38672 10.5051C3.38672 10.2871 3.38672 10.0743 3.38672 9.85114Z" fill="black"/>
<path d="M2.68004 10.5051C2.46205 10.5051 2.25443 10.5051 2.03125 10.5051C2.03125 10.2871 2.03125 10.0743 2.03125 9.84595C2.24924 9.84595 2.45686 9.84595 2.68004 9.84595C2.68004 10.0639 2.68004 10.2716 2.68004 10.5051Z" fill="black"/>
<path d="M18.3027 9.84595C18.5207 9.84595 18.7283 9.84595 18.9515 9.84595C18.9515 10.0639 18.9515 10.2716 18.9515 10.4999C18.7439 10.4999 18.5311 10.4999 18.3027 10.4999C18.3027 10.2871 18.3027 10.0743 18.3027 9.84595Z" fill="black"/>
<path d="M16.9473 9.84595C17.1653 9.84595 17.3677 9.84595 17.5857 9.84595C17.5857 10.0691 17.5857 10.2819 17.5857 10.5051C17.3781 10.5051 17.1704 10.5051 16.9473 10.5051C16.9473 10.2923 16.9473 10.0795 16.9473 9.84595Z" fill="black"/>
</svg>
